<?xml version="1.0" standalone="no"?>
<!DOCTYPE svg PUBLIC "-//W3C//DTD SVG 20010904//EN"
 "http://www.w3.org/TR/2001/REC-SVG-20010904/DTD/svg10.dtd">
<svg version="1.0" xmlns="http://www.w3.org/2000/svg"
 width="600.000000pt" height="335.000000pt" viewBox="0 0 600.000000 335.000000"
 preserveAspectRatio="xMidYMid meet">
<g transform="translate(0.000000,335.000000) scale(0.100000,-0.100000)"
fill="#000000" stroke="none">
<path d="M5984 3255 c0 -55 1 -76 3 -47 2 29 2 74 0 100 -2 26 -3 2 -3 -53z"/>
<path d="M3220 3171 c-22 -23 -14 -60 15 -67 27 -7 41 0 54 24 20 37 -40 75
-69 43z m53 -40 c-6 -24 -38 -20 -50 5 -8 18 -7 21 3 17 8 -3 14 0 14 6 0 8 5
8 19 0 10 -7 16 -19 14 -28z"/>
<path d="M4806 3148 c5 -7 2 -9 -7 -6 -11 4 -14 -2 -13 -20 0 -14 6 -28 12
-30 7 -2 10 -7 7 -11 -4 -7 40 -7 55 -1 3 1 8 2 11 2 5 -1 5 21 0 61 -1 5 -5
5 -11 2 -5 -3 -10 -1 -10 4 0 6 -12 11 -26 11 -17 0 -23 -4 -18 -12z m42 -31
c2 -12 -3 -17 -17 -17 -23 0 -24 1 -15 25 8 19 28 15 32 -8z"/>
<path d="M1216 3108 c-14 -19 -14 -24 -1 -38 8 -9 13 -19 10 -21 -2 -3 6 -5
20 -5 13 0 21 4 19 8 -3 4 -1 8 4 8 19 0 22 33 6 51 -22 25 -39 24 -58 -3z
m41 -32 c-8 -9 -15 -10 -23 -2 -15 15 6 38 23 24 9 -7 9 -13 0 -22z"/>
<path d="M2180 3110 c0 -6 -5 -8 -12 -4 -6 4 -8 3 -5 -3 3 -5 -5 -22 -19 -37
l-25 -27 28 -33 c15 -19 34 -37 42 -40 20 -9 85 58 77 79 -3 9 -2 13 3 10 5
-3 13 -1 16 5 4 6 3 9 -2 8 -17 -4 -53 14 -53 28 0 8 -4 14 -9 14 -5 0 -16 3
-25 6 -9 3 -16 1 -16 -6z m30 -41 c0 -12 7 -19 19 -19 11 0 23 -4 26 -10 4 -6
-5 -10 -19 -10 -21 0 -26 -5 -26 -25 0 -31 -17 -33 -22 -3 -2 14 -12 25 -28
29 l-25 6 28 11 c17 8 27 19 27 32 0 12 5 18 10 15 6 -3 10 -15 10 -26z"/>
<path d="M5520 3075 c-14 -8 -21 -14 -17 -15 4 0 -1 -10 -13 -22 l-20 -22 32
-33 c18 -18 39 -33 46 -33 7 0 10 -5 6 -12 -4 -7 -3 -8 5 -4 6 4 9 11 6 16 -3
5 5 17 18 27 41 32 41 42 6 79 -37 39 -36 38 -69 19z m62 -45 c10 0 18 -4 18
-10 0 -5 -9 -10 -20 -10 -13 0 -20 -7 -20 -19 0 -30 -17 -34 -24 -6 -4 16 -13
25 -27 25 -11 0 -17 5 -14 10 3 6 15 10 26 10 14 0 19 7 20 28 l1 27 11 -27
c6 -16 19 -28 29 -28z"/>
<path d="M394 3044 c-16 -24 -16 -26 3 -46 15 -14 27 -18 43 -13 12 4 19 9 16
12 -3 3 -1 15 5 25 23 43 -41 63 -67 22z m47 -27 c-5 -5 -17 -7 -26 -3 -14 5
-15 9 -5 21 10 12 16 13 27 4 9 -8 10 -16 4 -22z"/>
<path d="M4089 3012 c-8 -3 -20 -14 -27 -24 -7 -10 -17 -16 -22 -13 -18 11 -2
-45 21 -74 29 -36 38 -37 64 -8 47 52 47 51 12 88 -19 20 -40 33 -48 31z m21
-43 c0 -13 7 -19 23 -20 l22 0 -23 -9 c-12 -5 -27 -20 -32 -32 -6 -17 -9 -18
-9 -6 -1 10 -11 23 -23 29 l-23 12 23 10 c12 6 22 19 22 29 0 11 5 16 10 13 6
-3 10 -15 10 -26z"/>
<path d="M2909 2933 c-16 -6 -29 -9 -29 -6 0 3 -6 0 -13 -6 -8 -6 -18 -7 -22
-3 -5 4 -5 1 -1 -5 4 -7 2 -13 -3 -13 -36 0 -167 -164 -155 -194 3 -9 2 -16
-3 -16 -8 0 -12 -15 -16 -65 -5 -67 24 -167 64 -226 10 -14 15 -30 11 -35 -4
-5 -3 -6 1 -2 12 9 67 -41 68 -61 0 -9 3 -11 5 -5 3 7 24 1 59 -17 44 -23 71
-29 135 -32 44 -2 83 0 88 5 4 4 16 9 27 11 34 7 69 25 99 52 17 14 35 24 42
21 7 -3 10 2 7 15 -4 13 0 19 11 19 9 0 15 6 14 13 -2 6 3 11 10 9 8 -1 11 2
7 8 -3 5 -2 18 3 27 20 39 -15 58 -49 27 -9 -8 -23 -16 -31 -18 -7 -1 -20 -6
-28 -11 -8 -5 -47 -10 -86 -12 -58 -2 -79 2 -119 23 -58 29 -107 73 -98 87 4
6 1 7 -7 2 -10 -6 -12 -4 -7 9 4 9 3 15 -2 12 -13 -8 -32 67 -32 129 -1 67 14
109 55 154 17 19 25 30 17 26 -9 -5 -12 -4 -7 3 4 6 12 9 19 7 7 -3 22 10 34
27 36 51 3 71 -68 41z m71 -10 c0 -5 -18 -19 -39 -32 -73 -45 -119 -152 -108
-256 19 -180 218 -303 377 -233 31 14 63 33 73 43 33 32 30 6 -3 -37 -98 -127
-251 -170 -392 -109 -97 41 -177 149 -194 259 -15 98 37 226 118 294 58 48
169 95 168 71z"/>
<path d="M3508 2931 c-23 -23 -23 -26 6 -45 23 -14 26 -14 48 3 22 19 23 19 4
40 -23 25 -35 26 -58 2z m41 -31 c-20 -13 -42 8 -26 24 9 11 14 10 26 -1 12
-13 12 -16 0 -23z"/>
<path d="M730 2898 c-19 -17 -29 -27 -21 -23 11 6 13 4 8 -9 -4 -9 -3 -15 2
-12 5 3 20 -5 34 -18 20 -18 27 -21 31 -10 3 8 14 14 24 14 26 0 26 40 0 67
-28 30 -36 29 -78 -9z m70 -18 c5 0 2 -8 -7 -19 -16 -17 -19 -17 -31 -2 -7 9
-15 14 -17 11 -2 -3 -7 -2 -11 3 -4 4 0 7 9 7 8 0 19 10 23 22 l7 23 8 -23 c5
-12 13 -22 19 -22z"/>
<path d="M1926 2809 c3 -5 0 -9 -5 -9 -17 0 -13 -25 7 -43 15 -14 21 -15 36
-4 25 19 16 49 -17 58 -16 4 -25 3 -21 -2z m40 -28 c0 -21 -32 -22 -33 -1 -1
9 6 16 16 17 10 1 17 -6 17 -16z"/>
<path d="M4595 2781 c3 -2 0 -10 -6 -18 -9 -9 -8 -21 1 -43 10 -25 17 -29 41
-26 36 4 37 5 49 46 5 18 7 30 3 27 -3 -4 -15 -1 -27 6 -20 11 -70 18 -61 8z
m63 -32 c11 0 12 -2 5 -6 -7 -2 -13 -10 -13 -18 0 -7 -11 -12 -25 -12 -13 0
-22 4 -19 9 3 5 0 16 -8 25 -11 14 -11 16 4 11 10 -4 19 0 24 10 7 16 7 16 11
0 3 -10 12 -18 21 -19z"/>
<path d="M5982 2715 c0 -16 2 -22 5 -12 2 9 2 23 0 30 -3 6 -5 -1 -5 -18z"/>
<path d="M1336 2688 l-25 -33 31 -32 c31 -32 32 -32 60 -15 32 19 37 42 8 42
-13 0 -20 -7 -20 -20 0 -11 -4 -20 -10 -20 -5 0 -10 9 -10 19 0 12 -8 21 -22
24 l-23 4 22 8 c12 4 24 17 26 29 4 20 5 20 11 1 7 -20 55 -49 65 -40 7 7 -60
65 -75 65 -7 0 -24 -15 -38 -32z"/>
<path d="M5780 2682 c0 -4 5 -13 11 -19 6 -6 8 -16 4 -22 -9 -15 -28 -2 -21
15 7 19 -10 26 -24 9 -9 -11 -8 -19 4 -36 20 -30 44 -32 57 -7 8 15 8 27 0 44
-10 23 -31 33 -31 16z"/>
<path d="M5236 2615 c-29 -31 -34 -50 -12 -42 8 3 17 -1 20 -9 8 -21 33 -17
51 8 13 19 13 25 2 33 -8 5 -12 17 -10 25 3 9 -1 7 -8 -4 -9 -14 -8 -20 2 -27
12 -7 12 -9 0 -9 -7 0 -11 -6 -8 -14 4 -10 1 -13 -9 -9 -7 3 -14 10 -14 15 0
6 -8 7 -17 4 -10 -4 -4 4 12 18 17 13 27 27 23 31 -4 4 -18 -5 -32 -20z"/>
<path d="M3907 2552 c-15 -16 -15 -20 -1 -40 12 -18 19 -20 35 -12 10 6 19 18
19 26 0 10 6 14 15 10 27 -10 16 2 -17 18 -38 19 -32 20 -51 -2z m36 -28 c-4
-11 -9 -12 -19 -3 -17 14 -9 30 11 23 7 -3 11 -12 8 -20z"/>
<path d="M5981 2474 c0 -11 3 -14 6 -6 3 7 2 16 -1 19 -3 4 -6 -2 -5 -13z"/>
<path d="M5005 2416 c-30 -16 -30 -50 -1 -66 21 -10 28 -11 41 0 34 29 -1 87
-40 66z m31 -27 c10 -17 -13 -36 -27 -22 -12 12 -4 33 11 33 5 0 12 -5 16 -11z"/>
<path d="M4352 2379 c-9 -13 -19 -18 -30 -14 -9 3 -13 3 -10 -1 4 -4 3 -14 -2
-24 -7 -12 -4 -23 10 -37 10 -12 16 -24 12 -29 -4 -4 -2 -4 4 -1 7 4 17 0 24
-9 12 -13 17 -11 42 17 31 33 44 69 27 69 -6 0 -7 5 -3 12 5 8 0 9 -14 6 -20
-6 -27 2 -23 25 2 16 -25 6 -37 -14z m28 -18 c0 -12 10 -21 28 -26 l27 -7 -27
-10 c-18 -6 -28 -17 -28 -29 0 -10 -4 -19 -10 -19 -5 0 -10 8 -10 18 0 11 -10
23 -22 29 l-23 10 23 7 c13 4 22 15 22 27 0 10 5 19 10 19 6 0 10 -9 10 -19z"/>
<path d="M218 2307 c-32 -29 -35 -35 -24 -55 7 -13 15 -20 18 -17 3 4 9 -3 13
-14 8 -27 30 -27 49 0 8 12 19 18 25 14 7 -3 11 -3 10 2 -1 4 2 17 6 27 6 13
4 21 -4 24 -7 2 -22 15 -34 28 l-23 24 -36 -33z m42 -13 c0 -8 9 -14 20 -14
11 0 20 -4 20 -10 0 -5 -9 -10 -20 -10 -13 0 -20 -7 -20 -20 0 -11 -4 -20 -10
-20 -5 0 -10 9 -10 19 0 12 -8 21 -22 24 l-23 4 23 8 c13 4 22 15 22 27 0 10
5 16 10 13 6 -3 10 -13 10 -21z"/>
<path d="M920 2317 c-29 -14 -32 -32 -11 -65 21 -35 72 -27 82 12 6 23 4 32
-14 47 -26 22 -26 22 -57 6z m58 -27 c16 -1 16 -1 -1 -11 -9 -6 -16 -13 -13
-17 2 -4 -7 -8 -20 -8 -14 -1 -21 2 -18 8 4 6 0 14 -7 19 -11 7 -10 9 4 9 9 0
17 8 17 18 1 16 1 16 11 0 5 -10 18 -18 27 -18z"/>
<path d="M2208 2319 c-25 -14 -22 -32 10 -60 15 -13 24 -20 20 -15 -4 5 3 16
15 26 21 18 22 18 3 39 -22 24 -24 24 -48 10z m38 -20 c8 -14 -18 -31 -30 -19
-9 9 0 30 14 30 5 0 12 -5 16 -11z"/>
<path d="M5654 2246 c-30 -37 -40 -68 -20 -60 7 3 18 -6 26 -20 20 -39 38 -39
76 -1 19 20 34 39 34 43 0 12 -64 72 -78 72 -6 0 -23 -15 -38 -34z m55 7 c-4
-23 3 -33 21 -33 11 0 20 -4 20 -10 0 -5 -9 -10 -19 -10 -12 0 -22 -10 -26
-27 l-8 -28 -6 25 c-4 14 -17 27 -31 31 l-25 6 28 11 c15 6 27 18 27 27 0 8 5
15 10 15 6 0 9 -3 9 -7z"/>
<path d="M5983 2220 c0 -30 2 -43 4 -27 2 15 2 39 0 55 -2 15 -4 2 -4 -28z"/>
<path d="M1573 2195 c15 -14 23 -25 17 -25 -6 0 -8 -4 -5 -10 3 -5 -4 -10 -15
-10 -19 0 -21 4 -16 26 5 19 3 25 -6 22 -18 -6 -20 -40 -4 -61 31 -40 89 16
60 57 -7 11 -24 21 -36 23 -22 3 -22 2 5 -22z"/>
<path d="M4814 2095 c-13 -20 -15 -36 -9 -73 4 -26 8 -59 8 -75 2 -24 3 -26
15 -10 16 22 15 35 -3 59 -20 27 -18 61 6 95 11 16 16 29 10 29 -6 0 -18 -11
-27 -25z"/>
<path d="M4857 2103 c-12 -11 -8 -53 9 -84 8 -16 12 -39 9 -50 -11 -34 -54
-69 -84 -69 -40 0 -57 -23 -42 -57 6 -14 9 -28 7 -31 -3 -3 -31 0 -63 6 -32 6
-103 19 -158 27 -55 9 -110 20 -122 25 -15 6 -23 6 -23 -1 0 -6 -6 -7 -12 -3
-15 9 -26 11 -93 19 -27 2 -61 8 -75 11 -14 4 -32 9 -40 11 -33 9 -75 3 -86
-11 -6 -9 -14 -12 -18 -8 -4 4 -6 0 -4 -8 2 -8 -3 -14 -9 -12 -7 1 -12 -1 -11
-5 4 -13 -26 -53 -39 -53 -7 0 -12 -3 -10 -8 3 -11 -39 -62 -47 -57 -3 3 -4 3
-2 0 2 -3 -13 -23 -33 -44 -20 -20 -47 -52 -61 -69 -14 -18 -31 -32 -38 -32
-7 0 -11 -4 -7 -9 3 -5 -5 -17 -17 -25 -12 -9 -19 -16 -15 -16 4 0 -3 -10 -15
-22 -13 -13 -26 -23 -30 -23 -5 0 -8 -4 -9 -10 -1 -5 -16 -25 -35 -43 -18 -18
-38 -41 -44 -52 -9 -16 -15 -18 -38 -10 -25 9 -26 9 -8 -5 16 -12 17 -17 6
-30 -12 -14 -11 -18 1 -26 12 -8 11 -11 -3 -23 -23 -17 -11 -28 15 -15 14 8
26 8 43 -2 19 -10 27 -10 36 -1 19 19 28 14 28 -13 0 -17 -6 -25 -17 -25 -13
0 -15 -2 -5 -8 8 -5 10 -16 6 -27 -5 -13 -4 -16 4 -11 15 9 16 -47 2 -75 -7
-13 -7 -19 0 -19 5 0 10 -7 10 -15 0 -18 -12 -19 -27 -4 -8 8 -21 -1 -49 -30
-21 -23 -48 -44 -61 -47 -13 -4 -28 -15 -34 -26 -13 -25 -6 -34 11 -13 7 8 18
15 25 15 7 0 31 21 54 47 35 39 45 46 59 37 22 -14 34 -94 15 -101 -7 -3 -13
-9 -13 -15 0 -5 3 -7 8 -4 7 4 7 -19 3 -122 -1 -28 -4 -32 -28 -32 -34 1 -287
-30 -465 -56 -25 -4 -38 -2 -38 5 0 6 6 11 13 11 7 0 22 7 33 15 17 13 15 13
-18 3 -21 -6 -40 -20 -46 -33 -8 -18 -25 -25 -76 -35 -35 -6 -70 -9 -77 -4 -8
4 -10 3 -5 -4 5 -8 -4 -12 -26 -13 -18 0 -42 -3 -53 -5 -11 -3 -27 -6 -35 -6
-8 0 -19 -4 -25 -8 -5 -5 -26 -11 -45 -14 -19 -3 -59 -12 -89 -20 -30 -8 -58
-13 -62 -10 -5 2 -16 0 -26 -5 -18 -10 -213 -49 -283 -57 -207 -22 -289 -32
-298 -38 -5 -3 -33 -1 -61 6 -45 10 -49 13 -40 31 10 17 7 16 -20 -4 -17 -12
-30 -24 -28 -25 1 -2 34 -9 72 -18 39 -8 180 -39 315 -70 135 -30 297 -64 360
-75 131 -23 335 -50 495 -66 454 -44 723 -109 1004 -243 123 -59 131 -62 131
-57 0 2 -32 22 -70 43 -39 21 -67 42 -63 47 5 4 3 5 -4 1 -7 -3 -31 2 -55 13
-24 10 -70 29 -103 41 -33 12 -71 27 -85 33 -14 5 -29 11 -35 13 -242 62 -416
93 -670 119 -88 9 -187 20 -221 26 -33 5 -77 9 -97 9 -20 0 -37 4 -37 9 0 5
-24 9 -53 10 -59 0 -291 44 -493 92 -71 17 -154 35 -184 40 -60 11 -77 19 -39
19 102 1 606 79 679 106 8 3 121 28 250 55 233 50 447 84 584 95 39 3 76 7 81
8 8 3 381 -13 677 -28 14 0 24 -4 21 -8 -2 -5 15 -8 39 -8 32 0 39 3 28 11
-11 7 -2 8 32 5 26 -2 52 -7 57 -10 5 -4 11 -2 13 3 1 5 44 12 93 16 50 3 106
8 125 11 19 2 65 5 103 6 57 1 67 4 67 20 0 11 10 20 27 24 31 8 55 28 46 38
-4 3 -2 6 3 7 47 4 59 8 73 25 9 12 28 20 44 19 20 0 41 12 69 38 l40 38 -1
129 c-1 118 0 130 16 130 15 0 16 2 3 10 -11 7 -6 10 22 10 25 0 40 -6 47 -17
8 -14 10 -15 11 -3 0 27 -14 35 -65 35 -27 0 -178 7 -335 14 -157 8 -293 15
-302 15 -22 0 -23 15 -2 23 9 3 142 -2 297 -11 155 -9 308 -18 340 -20 33 -1
62 -8 66 -15 6 -9 11 -8 21 4 12 15 12 18 -3 26 -10 6 -14 16 -10 27 6 15 4
15 -9 4 -14 -11 -18 -10 -29 10 -7 13 -12 24 -11 26 1 1 2 8 2 15 0 9 -3 8 -9
-2 -7 -11 -13 -9 -30 8 -11 11 -21 26 -21 31 0 6 -7 10 -16 10 -8 0 -12 5 -9
10 3 6 1 10 -5 10 -16 0 -41 27 -38 41 2 6 -13 20 -32 31 -19 11 -37 25 -39
30 -2 5 -16 21 -32 35 -16 14 -26 30 -22 36 3 6 2 8 -3 5 -11 -7 -35 17 -26
27 4 4 2 5 -3 4 -6 -2 -29 16 -53 39 -36 35 -43 47 -41 74 2 18 10 41 18 51
13 15 13 19 0 32 -19 19 -69 30 -69 16 0 -6 14 -11 30 -11 23 0 30 -4 30 -20
0 -22 -8 -24 -43 -11 -14 6 -26 20 -29 35 -3 14 -2 24 1 21 4 -2 16 12 26 31
19 36 19 42 -12 138 -4 13 -2 17 5 12 8 -5 10 -2 6 8 -7 18 -8 19 -17 9z
m-668 -297 c41 -44 104 -112 140 -151 231 -245 281 -303 275 -319 -4 -9 -10
-16 -15 -14 -4 2 -61 62 -125 133 -65 72 -150 164 -189 205 -40 41 -91 96
-115 123 -23 26 -48 47 -54 46 -6 0 -114 -115 -240 -255 -126 -140 -233 -254
-237 -254 -28 0 -2 40 91 140 147 159 156 169 278 307 59 67 109 121 112 121
3 0 38 -37 79 -82z m11 74 c25 -6 68 -13 95 -16 119 -14 111 -9 254 -164 74
-80 157 -170 185 -200 29 -30 74 -79 101 -108 l49 -53 -50 6 c-27 3 -85 7
-128 9 l-80 3 -49 54 c-28 30 -84 90 -126 134 -42 44 -121 130 -176 189 -55
60 -111 120 -125 133 -28 26 -21 28 50 13z m640 -4 c0 -8 -18 -18 -40 -24 -36
-9 -40 -8 -40 8 0 17 10 22 68 29 6 0 12 -5 12 -13z m-293 -52 c38 -6 52 -18
140 -113 53 -58 129 -140 168 -181 39 -41 97 -102 128 -135 31 -33 57 -55 56
-50 0 6 -29 42 -66 80 -36 39 -123 131 -192 205 -69 74 -136 144 -148 156 -13
12 -23 23 -23 25 0 3 36 -2 80 -10 74 -14 79 -16 74 -37 -7 -27 46 -91 85
-101 17 -5 86 -70 179 -169 134 -143 171 -186 145 -171 -5 3 -66 8 -138 11
l-130 7 -75 77 c-41 43 -124 132 -185 197 -60 66 -131 142 -157 169 -27 27
-48 51 -48 53 0 3 15 3 33 -1 17 -3 51 -8 74 -12z m283 -53 c0 -39 5 -73 10
-76 6 -4 10 22 10 69 0 75 3 82 34 70 12 -5 14 -19 10 -82 -3 -42 -7 -79 -9
-80 -7 -8 -46 11 -75 35 -27 22 -30 31 -30 79 0 51 1 54 25 54 24 0 25 -2 25
-69z m-710 29 c0 -6 -17 -30 -37 -53 -105 -115 -178 -195 -204 -219 -16 -16
-27 -28 -24 -28 2 0 -23 -28 -56 -62 -60 -63 -84 -101 -73 -119 3 -5 -9 -9
-26 -9 -18 0 -29 -4 -25 -10 3 -5 2 -10 -4 -10 -33 0 -8 37 115 173 76 84 148
161 159 172 11 12 51 55 89 98 65 73 86 90 86 67z m60 -247 l0 -193 -45 0 -45
0 0 185 c0 175 1 187 22 215 l22 30 23 -22 c22 -21 23 -26 23 -215z m1029
-125 l106 -108 -55 1 -55 0 -100 109 c-55 60 -99 114 -97 120 1 6 -1 9 -6 6
-5 -3 -32 18 -60 47 -38 38 -49 56 -42 67 5 8 6 28 3 45 -4 27 7 18 98 -75 56
-58 150 -153 208 -212z m-1129 112 l0 -180 -40 0 -40 0 0 103 c0 97 1 105 25
127 14 13 25 28 25 33 0 6 -11 0 -25 -13 l-25 -23 0 22 c0 19 63 111 76 111 2
0 4 -81 4 -180z m194 -39 l1 -141 -42 0 -43 0 0 182 0 183 41 -41 41 -41 2
-142z m-284 -11 l0 -130 -41 0 c-34 0 -40 3 -35 18 5 15 9 99 7 130 -1 7 -5
10 -11 7 -5 -3 -10 -40 -10 -81 0 -72 -1 -74 -25 -74 -14 0 -28 -1 -32 -2 -5
-2 -9 19 -11 45 -2 47 0 51 56 110 33 34 67 72 78 85 10 12 20 22 21 22 2 0 3
-58 3 -130z m368 58 c37 -40 92 -99 122 -131 55 -59 55 -59 25 -56 -24 3 -33
11 -43 39 l-12 35 4 -37 5 -38 -40 0 -39 0 0 68 c0 37 -5 74 -10 82 -8 11 -10
-8 -9 -65 l2 -80 -36 -3 -36 -3 -3 130 c-2 72 -2 131 0 131 1 0 33 -33 70 -72z
m-538 -156 c0 -36 -2 -38 -35 -40 -19 -2 -35 1 -35 5 0 7 61 73 67 73 2 0 3
-17 3 -38z m720 -86 l0 -46 -327 -2 c-445 -2 -450 -2 -460 -12 -5 -5 158 -6
390 -2 l397 7 0 -242 0 -242 -37 7 c-21 3 -50 6 -65 6 -26 0 -28 3 -28 40 l0
40 60 -7 c42 -4 60 -2 60 6 0 6 -3 10 -7 10 -5 -1 -32 -1 -60 0 l-53 1 0 45 0
45 63 2 62 2 -62 3 -63 4 0 44 0 45 60 0 c37 0 60 4 60 11 0 7 -21 9 -60 7
l-60 -4 0 43 0 43 63 2 62 2 -63 3 c-36 2 -60 8 -57 13 4 6 -44 10 -124 10
-81 0 -131 -4 -131 -10 0 -5 -22 -10 -50 -10 -38 0 -50 4 -50 15 0 12 -19 15
-110 15 -89 0 -112 -3 -116 -15 -4 -10 -20 -15 -47 -15 -22 0 -38 -3 -34 -6 3
-3 22 -6 41 -6 l36 0 0 -89 0 -89 -42 -2 -43 -1 40 -4 c22 -3 42 -8 45 -13 3
-5 56 -12 118 -16 101 -6 112 -5 112 10 0 13 9 16 50 15 l50 -2 0 -50 c0 -41
-3 -48 -16 -43 -9 3 -103 6 -210 6 l-194 0 0 94 0 94 40 -5 c26 -4 40 -2 40 6
0 6 -17 11 -40 11 l-40 0 0 130 0 130 168 2 c92 2 272 4 400 6 l232 3 0 -45z
m255 -15 c116 -6 251 -11 302 -11 50 0 98 -3 107 -6 19 -7 22 -44 4 -44 -7 0
-94 4 -193 10 -327 17 -450 20 -435 11 14 -8 77 -11 475 -27 77 -3 145 -7 152
-9 6 -2 11 -18 11 -36 l-1 -32 -181 7 c-100 3 -247 9 -328 13 l-148 6 0 75 c0
58 3 72 13 64 6 -5 107 -15 222 -21z m545 19 c0 -5 -2 -10 -4 -10 -3 0 -8 5
-11 10 -3 6 -1 10 4 10 6 0 11 -4 11 -10z m-1295 -240 l0 -111 -100 3 -99 3
-1 108 -1 107 101 0 100 0 0 -110z m355 -90 c0 -127 -4 -200 -10 -200 -6 0
-10 70 -10 190 l0 190 -95 0 -96 0 1 -187 c1 -104 -1 -186 -5 -183 -4 3 -8 92
-9 197 l-1 193 113 0 112 0 0 -200z m-240 139 l0 -37 -50 -4 -50 -3 0 40 0 40
50 1 50 0 0 -37z m800 25 c135 -3 247 -8 250 -11 2 -2 5 -18 5 -35 l1 -30
-323 4 c-178 3 -323 1 -323 -4 0 -4 145 -8 323 -8 l323 0 2 -36 c2 -28 -1 -37
-16 -41 -11 -2 -25 -16 -33 -29 -10 -20 -18 -24 -41 -19 -21 5 -33 1 -52 -18
-23 -23 -31 -24 -257 -36 -129 -7 -238 -17 -244 -22 -7 -7 0 -8 20 -5 17 2 91
7 165 11 74 3 156 8 182 11 43 5 46 4 41 -15 -3 -14 -13 -21 -28 -21 -25 0
-50 -24 -41 -38 3 -5 -5 -7 -17 -5 -12 2 -93 -2 -179 -9 l-158 -14 0 92 0 91
167 6 c91 4 218 7 282 8 64 1 127 5 141 9 24 8 -39 7 -422 -5 l-168 -6 0 97 0
96 78 -6 c42 -3 187 -8 322 -12z m-590 -181 l0 -183 -80 0 -80 0 0 183 0 182
80 0 80 0 0 -182z m-210 57 l0 -40 -50 0 -50 0 0 40 0 40 50 0 50 0 0 -40z
m-107 -157 l107 -6 0 -36 0 -36 -182 6 c-101 4 -195 7 -210 8 -25 1 -28 5 -28
36 l0 35 103 0 c57 0 152 -3 210 -7z"/>
<path d="M4195 1850 c3 -5 16 -10 28 -9 21 0 21 1 2 9 -28 12 -37 12 -30 0z"/>
<path d="M4369 1738 c55 -61 98 -115 95 -120 -3 -5 -1 -7 5 -6 6 2 68 -55 137
-127 69 -71 124 -125 122 -119 -2 7 -62 74 -134 150 -72 77 -164 175 -204 219
-74 80 -74 80 -45 83 17 2 33 -2 40 -11 8 -12 12 -12 22 -1 10 10 4 14 -31 19
-25 4 -49 4 -54 1 -5 -3 -15 1 -22 9 -7 8 -16 15 -21 15 -5 0 36 -50 90 -112z"/>
<path d="M4466 1688 c10 -14 21 -24 23 -22 3 3 -6 15 -18 27 l-24 22 19 -27z"/>
<path d="M4570 1576 c0 -2 7 -9 15 -16 9 -7 15 -8 15 -2 0 5 -7 12 -15 16 -8
3 -15 4 -15 2z"/>
<path d="M4531 1796 c2 -2 18 -6 34 -10 22 -5 26 -4 15 4 -14 9 -59 15 -49 6z"/>
<path d="M4680 1769 c0 -5 5 -7 10 -4 6 3 10 8 10 11 0 2 -4 4 -10 4 -5 0 -10
-5 -10 -11z"/>
<path d="M4730 1731 c0 -6 4 -13 10 -16 6 -3 7 1 4 9 -7 18 -14 21 -14 7z"/>
<path d="M4820 1631 c0 -6 4 -13 10 -16 6 -3 7 1 4 9 -7 18 -14 21 -14 7z"/>
<path d="M4880 1556 c0 -2 8 -10 18 -17 15 -13 16 -12 3 4 -13 16 -21 21 -21
13z"/>
<path d="M4110 1698 c-12 -22 -12 -22 6 -6 10 10 15 20 12 24 -4 3 -12 -5 -18
-18z"/>
<path d="M4113 1515 c0 -27 2 -38 4 -22 2 15 2 37 0 50 -2 12 -4 0 -4 -28z"/>
<path d="M4210 1653 c0 -16 37 -59 45 -52 3 4 -5 19 -19 34 -15 16 -26 23 -26
18z"/>
<path d="M4213 1480 c0 -25 2 -35 4 -22 2 12 2 32 0 45 -2 12 -4 2 -4 -23z"/>
<path d="M3963 1548 c-22 -29 -24 -41 -3 -20 12 13 20 25 17 28 -2 2 -9 -1
-14 -8z"/>
<path d="M3865 1440 c-10 -11 -16 -22 -13 -25 3 -3 13 4 23 15 10 11 16 22 13
25 -3 3 -13 -4 -23 -15z"/>
<path d="M4310 1542 c0 -5 9 -17 20 -27 19 -17 19 -17 7 9 -12 25 -27 35 -27
18z"/>
<path d="M4390 1463 c0 -7 11 -25 25 -40 32 -36 32 -17 0 22 -14 17 -25 25
-25 18z"/>
<path d="M3760 1319 c0 -5 5 -7 10 -4 6 3 10 8 10 11 0 2 -4 4 -10 4 -5 0 -10
-5 -10 -11z"/>
<path d="M4510 1320 c0 -5 5 -10 11 -10 5 0 7 5 4 10 -3 6 -8 10 -11 10 -2 0
-4 -4 -4 -10z"/>
<path d="M3810 1290 l-55 -7 68 -1 c43 -1 66 2 62 8 -3 6 -9 9 -13 8 -4 -1
-32 -4 -62 -8z"/>
<path d="M4228 1293 c34 -2 90 -2 125 0 34 2 6 3 -63 3 -69 0 -97 -1 -62 -3z"/>
<path d="M3761 1024 c0 -11 3 -14 6 -6 3 7 2 16 -1 19 -3 4 -6 -2 -5 -13z"/>
<path d="M4955 1189 c-13 -5 9 -8 59 -8 44 -1 77 1 75 3 -10 8 -116 13 -134 5z"/>
<path d="M3862 1073 l3 -98 83 -3 82 -3 0 101 0 100 -85 0 -86 0 3 -97z m78
47 c0 -39 -1 -40 -35 -40 -34 0 -35 1 -35 40 0 39 1 40 35 40 34 0 35 -1 35
-40z m80 0 c0 -39 -1 -40 -35 -40 -34 0 -35 1 -35 40 0 39 1 40 35 40 34 0 35
-1 35 -40z m-80 -97 c0 -42 0 -43 -35 -43 -35 0 -35 1 -35 43 0 42 0 43 35 43
35 0 35 -1 35 -43z m80 0 c0 -42 0 -43 -35 -43 -35 0 -35 1 -35 43 0 41 0 42
35 42 35 0 35 -1 35 -42z"/>
<path d="M4648 1103 c23 -2 61 -2 85 0 23 2 4 4 -43 4 -47 0 -66 -2 -42 -4z"/>
<path d="M5038 1013 c12 -2 32 -2 45 0 12 2 2 4 -23 4 -25 0 -35 -2 -22 -4z"/>
<path d="M4665 821 c-3 -6 18 -7 52 -4 76 8 80 13 10 13 -31 0 -58 -4 -62 -9z"/>
<path d="M4323 965 c-7 -20 2 -29 21 -22 9 4 13 13 10 22 -8 19 -23 19 -31 0z"/>
<path d="M3760 831 c0 -7 32 -11 92 -11 50 0 89 2 87 4 -2 2 -43 7 -91 11 -61
5 -88 3 -88 -4z"/>
<path d="M3673 2059 c-1 -16 6 -34 18 -45 20 -18 22 -18 33 -2 7 10 17 14 21
10 5 -4 5 -2 2 5 -4 6 -2 13 4 15 8 3 8 10 -2 26 -10 16 -22 22 -44 20 -25 -1
-30 -6 -32 -29z m53 0 c10 -17 -13 -36 -27 -22 -12 12 -4 33 11 33 5 0 12 -5
16 -11z"/>
<path d="M5982 2065 c0 -16 2 -22 5 -12 2 9 2 23 0 30 -3 6 -5 -1 -5 -18z"/>
<path d="M2111 1964 l-20 -25 21 -24 c21 -24 27 -24 60 4 20 17 24 41 7 41 -5
0 -8 4 -5 9 9 14 -20 21 -34 8 -10 -9 -11 -9 -6 1 12 21 -2 13 -23 -14z m45
-15 c3 -6 2 -15 -2 -19 -12 -12 -38 5 -30 19 9 14 23 14 32 0z"/>
<path d="M2851 1884 c-27 -34 -26 -38 5 -59 26 -17 27 -16 50 7 l24 24 -29 28
-28 27 -22 -27z m39 -47 c-13 -15 -15 -16 -18 -2 -2 8 -10 15 -18 15 -11 0
-10 4 4 18 15 15 19 15 32 2 14 -13 14 -17 0 -33z"/>
<path d="M5982 1875 c0 -16 2 -22 5 -12 2 9 2 23 0 30 -3 6 -5 -1 -5 -18z"/>
<path d="M1155 1833 c15 -37 11 -46 -25 -49 -27 -3 -31 -2 -15 6 19 8 19 9 -2
9 -12 1 -25 6 -28 11 -3 6 -11 10 -16 10 -5 0 -2 -11 6 -24 15 -23 15 -25 -3
-35 -11 -6 -23 -7 -27 -3 -5 4 -5 1 -1 -5 8 -15 -10 -18 -19 -3 -3 6 -14 10
-23 10 -13 0 -12 -5 8 -20 14 -11 20 -20 14 -20 -6 0 -16 -11 -22 -25 -10 -22
-15 -24 -31 -15 -24 12 -31 13 -31 1 0 -5 11 -12 24 -15 24 -6 24 -7 10 -36
-9 -18 -23 -30 -35 -30 -10 0 -19 -5 -19 -11 0 -5 10 -9 23 -7 29 4 37 -37 10
-59 -17 -14 -17 -14 0 -9 20 6 39 -29 32 -62 -3 -19 48 -86 58 -75 10 9 67 -8
67 -20 0 -10 -75 -49 -84 -44 -8 5 -39 -30 -56 -63 -33 -65 -44 -197 -17 -212
9 -5 17 -16 17 -23 0 -8 4 -15 9 -15 15 0 20 -27 12 -57 -5 -16 -4 -39 2 -53
6 -14 13 -53 16 -88 l7 -63 -34 6 c-18 3 -41 9 -49 12 -11 4 -14 2 -9 -5 4 -7
17 -12 29 -12 34 0 69 -28 65 -53 -3 -19 -10 -22 -73 -24 -38 -1 -121 -4 -182
-6 l-113 -5 0 25 c0 14 7 26 18 29 9 3 29 12 43 20 24 12 28 12 43 -5 17 -19
70 -36 60 -20 -3 5 0 9 6 9 8 0 8 6 0 20 -11 21 -4 25 19 11 9 -6 24 -5 38 2
24 11 24 11 4 26 -28 22 -19 66 10 50 15 -7 21 -6 25 5 3 8 3 19 0 25 -4 5 4
11 16 13 32 4 36 36 5 43 -18 5 -23 12 -20 26 4 13 0 19 -10 19 -34 0 -44 -11
-41 -45 1 -19 -2 -37 -6 -40 -5 -3 -6 -13 -3 -22 4 -10 2 -14 -4 -10 -6 4 -20
-5 -31 -20 l-19 -27 -12 22 c-6 12 -17 22 -24 22 -8 0 -8 -3 2 -9 10 -6 11
-13 2 -29 -16 -29 -14 -34 8 -22 24 12 79 7 94 -10 10 -10 6 -11 -18 -6 -44
10 -69 8 -117 -10 -24 -9 -55 -18 -70 -21 -21 -4 -28 -11 -28 -28 0 -12 -8
-29 -18 -38 -26 -24 -36 -21 -18 5 9 12 16 32 16 44 0 13 11 36 25 52 21 25
22 31 9 36 -9 3 -12 2 -8 -5 3 -6 -3 -17 -15 -25 -12 -9 -21 -26 -21 -42 0
-21 -3 -24 -10 -12 -13 21 30 96 54 92 13 -2 16 1 10 10 -6 10 -5 11 8 1 14
-12 28 -8 28 9 0 11 -37 10 -60 -2 -34 -18 -60 -74 -60 -128 0 -30 -5 -53 -12
-56 -7 -3 10 -4 37 -1 28 2 132 7 233 11 174 7 182 6 182 -12 0 -10 -7 -32
-15 -47 -8 -15 -10 -25 -6 -22 5 2 11 -4 14 -15 5 -21 -15 -45 -27 -32 -4 4
-7 2 -6 -3 7 -35 -2 -53 -32 -63 l-33 -12 31 5 c24 3 36 -2 52 -20 11 -13 17
-27 14 -31 -4 -4 -2 -4 5 0 6 3 16 -2 22 -11 5 -10 12 -17 15 -15 15 6 27 1
20 -9 -4 -7 1 -7 16 1 12 6 24 9 27 6 4 -3 13 4 22 17 18 25 22 76 8 95 -7 9
-4 19 11 32 21 20 21 20 47 -4 24 -23 25 -25 8 -35 -10 -6 -15 -11 -10 -11 4
0 0 -17 -8 -37 -9 -20 -12 -34 -9 -30 4 4 17 -1 28 -12 28 -24 82 -35 89 -17
3 8 24 17 46 21 23 4 41 12 41 18 0 5 3 7 6 4 4 -3 16 0 28 9 21 15 28 54 12
66 -6 4 -4 14 5 24 10 12 10 15 1 10 -7 -4 -37 -9 -66 -10 -51 -3 -52 -2 -34
16 15 15 24 58 19 91 -2 11 45 8 179 -13 184 -28 252 -40 263 -47 5 -3 7 3 5
13 -2 14 -11 18 -33 16 -17 -1 -57 4 -90 12 -33 8 -63 12 -67 10 -5 -3 -8 0
-8 6 0 7 -6 10 -14 7 -8 -3 -54 1 -103 9 -48 8 -94 15 -100 16 -18 2 -16 48 1
48 8 0 18 5 22 11 4 7 0 9 -14 5 -18 -6 -22 -2 -27 28 -4 19 -4 59 0 88 9 77
10 150 1 176 -6 16 -5 22 7 22 23 0 38 51 42 134 2 70 0 78 -27 116 -16 22
-34 40 -39 40 -6 0 -7 4 -4 10 4 6 -1 7 -11 3 -14 -5 -16 -3 -11 12 6 15 5 16
-8 5 -8 -7 -15 -8 -15 -2 0 5 11 17 23 25 13 9 30 29 37 46 7 17 17 31 22 31
5 0 6 5 3 10 -3 6 -2 10 4 10 11 0 8 40 -4 60 -5 8 -4 11 2 7 14 -9 16 80 2
121 -10 30 -8 36 12 58 24 26 16 34 -10 10 -14 -13 -19 -12 -40 5 -20 16 -22
23 -13 49 7 18 7 30 1 30 -5 0 -9 -6 -9 -12 -1 -33 -16 -40 -46 -21 -23 14
-28 24 -26 47 2 18 0 26 -7 21 -6 -3 -11 -17 -11 -31 0 -22 -2 -23 -21 -14
-11 7 -27 9 -34 6 -9 -3 -16 5 -20 25 -4 16 -11 29 -17 29 -6 0 -7 -8 -3 -17z
m25 -74 c0 6 14 11 30 11 17 0 30 -4 30 -10 0 -5 6 -7 14 -4 20 8 58 -14 50
-28 -5 -7 -2 -9 8 -5 22 8 50 -25 42 -48 -5 -13 -4 -16 4 -11 18 11 35 -43 28
-93 -4 -29 -15 -52 -31 -67 -27 -25 -36 -94 -13 -94 16 0 -31 -48 -55 -56 -37
-12 -38 18 -1 43 19 13 34 28 34 33 0 15 -7 12 -35 -14 -35 -33 -101 -48 -149
-35 -42 12 -110 68 -132 110 -31 62 -1 209 43 209 9 0 13 3 10 7 -11 10 13 33
34 33 11 0 19 4 19 9 0 13 42 19 58 8 8 -6 12 -5 12 2z m208 -266 c-3 -5 -10
-23 -17 -40 -13 -34 -31 -44 -31 -18 0 25 23 65 37 65 8 0 13 -3 11 -7z m-330
-99 c-9 -8 -58 41 -58 58 0 7 14 -2 32 -19 18 -18 29 -35 26 -39z m192 -46 c0
-15 -9 -18 -60 -18 -50 0 -60 3 -60 18 0 14 10 17 60 18 51 0 60 -2 60 -18z
m74 -47 c60 -26 76 -59 76 -158 0 -99 -5 -108 -56 -94 -67 19 -69 22 -51 77
16 49 14 71 -3 44 -8 -13 -10 -12 -10 3 0 9 -4 17 -10 17 -6 0 -6 -9 0 -26 7
-19 7 -37 -2 -61 -9 -24 -9 -36 -2 -41 7 -5 -2 -25 -26 -58 -35 -47 -40 -50
-74 -46 -30 3 -42 12 -66 47 -25 36 -30 54 -31 109 -1 37 -6 69 -10 72 -5 3
-9 -2 -9 -10 0 -9 -6 -13 -14 -10 -11 4 -10 -3 5 -32 10 -21 19 -44 19 -50 0
-9 -76 -34 -103 -34 -7 0 12 142 24 175 11 32 25 46 64 67 44 24 61 28 142 28
69 0 103 -5 137 -19z m-264 -260 c0 -4 16 -28 35 -53 25 -34 41 -45 61 -45 14
0 30 -7 35 -14 11 -19 3 -24 -15 -10 -11 10 -19 9 -35 -1 -12 -7 -21 -16 -21
-21 0 -4 -29 21 -65 56 -66 65 -75 81 -52 90 20 9 57 8 57 -2z m284 -12 c9 -8
-105 -129 -122 -129 -26 0 -14 40 27 93 36 46 48 56 65 51 12 -3 25 -10 30
-15z m20 -85 c4 -31 4 -59 1 -62 -6 -6 -106 -3 -116 4 -6 4 90 110 102 113 3
0 9 -24 13 -55z m-272 -49 c8 -11 -21 -22 -59 -24 -20 -1 -23 4 -23 37 0 21 3
42 7 45 6 7 56 -33 75 -58z m-182 39 c0 -3 -5 -14 -10 -25 -10 -17 -7 -19 20
-19 16 0 30 -4 30 -10 0 -16 -42 -12 -61 6 -14 13 -16 21 -8 35 9 18 29 26 29
13z m313 -46 c10 -5 16 -12 13 -15 -3 -3 -12 -1 -19 6 -20 16 -46 -14 -29 -31
14 -14 16 -32 3 -24 -5 4 -12 0 -15 -6 -5 -10 -7 -10 -12 -1 -3 7 -11 10 -19
7 -18 -7 -30 15 -16 29 9 9 10 7 5 -8 -7 -17 -6 -18 8 -7 13 10 17 10 21 0 2
-7 8 -10 12 -6 4 4 2 15 -5 24 -12 13 -11 17 1 26 10 7 6 8 -15 3 -26 -5 -28
-4 -17 9 14 16 46 14 84 -6z m-112 -35 c-8 -15 -10 -15 -11 -2 0 17 10 32 18
25 2 -3 -1 -13 -7 -23z m115 -10 c-7 -7 -26 7 -26 19 0 6 6 6 15 -2 9 -7 13
-15 11 -17z m120 14 c8 -7 5 -248 -4 -292 -7 -39 -8 -40 -60 -48 -29 -5 -59
-6 -66 -4 -8 3 -15 36 -19 95 -4 49 -10 97 -13 107 -6 16 -3 17 29 11 51 -10
46 7 -5 20 -24 6 -52 15 -63 19 -18 8 -19 7 -6 -9 13 -16 12 -17 -12 -11 -18
5 -27 3 -27 -5 0 -7 12 -10 32 -8 32 3 33 2 41 -48 6 -35 4 -69 -5 -105 -13
-54 -13 -54 -55 -57 -23 -2 -52 2 -64 8 -19 11 -21 18 -16 63 4 28 11 53 16
56 6 4 4 28 -5 61 -8 30 -14 76 -14 102 0 47 1 48 30 48 18 0 30 -5 30 -13 0
-17 52 -47 82 -47 28 1 50 17 67 49 11 21 18 23 57 18 25 -2 47 -7 50 -10z
m-446 -12 c19 -23 8 -26 -20 -5 -19 15 -21 20 -9 20 9 0 22 -7 29 -15z m-51
-41 c-17 -21 -31 -17 -19 6 6 11 15 18 21 14 6 -4 6 -11 -2 -20z m-39 -84 c0
-13 -7 -13 -31 1 -11 5 -17 14 -14 20 7 11 45 -7 45 -21z m244 -209 c3 -5 -1
-14 -9 -21 -8 -7 -15 -17 -15 -22 0 -6 6 -6 14 1 11 10 15 8 19 -6 3 -10 5 -5
6 13 1 28 4 31 26 26 18 -3 26 -12 31 -37 9 -51 2 -70 -28 -73 -34 -4 -98 50
-98 84 0 30 41 57 54 35z m241 -38 c8 -27 8 -27 14 -6 6 22 7 22 35 8 35 -19
42 -19 27 -1 -10 11 -8 16 8 21 28 8 41 -1 41 -29 0 -31 -12 -40 -98 -66 -67
-21 -75 -22 -89 -7 -14 13 -14 21 -2 61 11 36 18 46 35 46 15 0 24 -8 29 -27z"/>
<path d="M5982 1690 c0 -19 2 -27 5 -17 2 9 2 25 0 35 -3 9 -5 1 -5 -18z"/>
<path d="M5501 1674 c0 -11 3 -14 6 -6 3 7 2 16 -1 19 -3 4 -6 -2 -5 -13z"/>
<path d="M5190 1666 c0 -2 7 -7 16 -10 8 -3 12 -2 9 4 -6 10 -25 14 -25 6z"/>
<path d="M5360 1650 c-13 -8 -12 -10 3 -10 9 0 17 5 17 10 0 12 -1 12 -20 0z"/>
<path d="M5466 1651 c-4 -7 -5 -15 -2 -18 9 -9 19 4 14 18 -4 11 -6 11 -12 0z"/>
<path d="M5529 1643 c-13 -15 -12 -15 9 -4 23 12 28 21 13 21 -5 0 -15 -7 -22
-17z"/>
<path d="M5251 1624 c0 -11 3 -14 6 -6 3 7 2 16 -1 19 -3 4 -6 -2 -5 -13z"/>
<path d="M5290 1621 c0 -6 5 -13 10 -16 6 -3 10 1 10 9 0 9 -4 16 -10 16 -5 0
-10 -4 -10 -9z"/>
<path d="M5400 1611 c0 -5 7 -15 17 -22 15 -13 15 -12 4 9 -12 23 -21 28 -21
13z"/>
<path d="M5519 1603 c-13 -17 -13 -17 6 -3 11 8 22 16 24 17 2 2 0 3 -6 3 -6
0 -17 -8 -24 -17z"/>
<path d="M5340 1590 c-24 -19 -24 -19 -2 -13 12 3 25 10 28 15 11 18 -1 17
-26 -2z"/>
<path d="M5210 1580 c20 -13 40 -13 40 0 0 6 -12 10 -27 10 -22 0 -25 -2 -13
-10z"/>
<path d="M5510 1570 c-13 -8 -12 -10 3 -10 9 0 17 5 17 10 0 12 -1 12 -20 0z"/>
<path d="M5620 1570 c0 -5 5 -10 10 -10 6 0 10 5 10 10 0 6 -4 10 -10 10 -5 0
-10 -4 -10 -10z"/>
<path d="M5291 1554 c0 -11 3 -14 6 -6 3 7 2 16 -1 19 -3 4 -6 -2 -5 -13z"/>
<path d="M5581 1560 c0 -8 4 -22 9 -30 12 -18 12 -2 0 25 -6 13 -9 15 -9 5z"/>
<path d="M5812 1545 c0 -16 2 -22 5 -12 2 9 2 23 0 30 -3 6 -5 -1 -5 -18z"/>
<path d="M5850 1549 c-7 -11 -10 -23 -7 -25 2 -2 9 7 15 21 14 30 7 33 -8 4z"/>
<path d="M5730 1544 c0 -8 5 -12 10 -9 6 4 8 11 5 16 -9 14 -15 11 -15 -7z"/>
<path d="M5230 1530 c20 -13 33 -13 25 0 -3 6 -14 10 -23 10 -15 0 -15 -2 -2
-10z"/>
<path d="M5625 1529 c-11 -17 -2 -18 19 -3 17 12 17 14 4 14 -9 0 -20 -5 -23
-11z"/>
<path d="M5782 1520 c0 -14 2 -19 5 -12 2 6 2 18 0 25 -3 6 -5 1 -5 -13z"/>
<path d="M5500 1526 c0 -2 7 -7 16 -10 8 -3 12 -2 9 4 -6 10 -25 14 -25 6z"/>
<path d="M5706 1521 c-3 -5 2 -15 12 -22 15 -12 16 -12 5 2 -7 9 -10 19 -6 22
3 4 4 7 0 7 -3 0 -8 -4 -11 -9z"/>
<path d="M5342 1500 c0 -14 2 -19 5 -12 2 6 2 18 0 25 -3 6 -5 1 -5 -13z"/>
<path d="M5367 1496 c-4 -10 -5 -21 -2 -24 9 -9 17 6 13 25 -3 17 -4 17 -11
-1z"/>
<path d="M5825 1500 c-3 -5 1 -10 9 -10 8 0 18 5 21 10 3 6 -1 10 -9 10 -8 0
-18 -4 -21 -10z"/>
<path d="M5440 1485 c-11 -13 -10 -14 4 -9 9 3 16 10 16 15 0 13 -6 11 -20 -6z"/>
<path d="M5625 1490 c-3 -5 1 -10 10 -10 9 0 13 5 10 10 -3 6 -8 10 -10 10 -2
0 -7 -4 -10 -10z"/>
<path d="M5681 1495 c1 -22 16 -48 22 -38 3 5 0 19 -8 29 -8 10 -14 15 -14 9z"/>
<path d="M3580 1478 c0 -22 16 -31 36 -20 11 6 13 11 5 16 -6 4 -11 1 -11 -6
-1 -8 -6 -6 -15 6 -13 17 -15 17 -15 4z"/>
<path d="M5250 1474 c0 -8 5 -12 10 -9 6 3 10 10 10 16 0 5 -4 9 -10 9 -5 0
-10 -7 -10 -16z"/>
<path d="M3436 1465 c7 -17 23 -19 44 -4 12 8 10 9 -7 4 -14 -4 -23 -2 -23 4
0 6 -4 11 -10 11 -5 0 -7 -7 -4 -15z"/>
<path d="M5543 1465 c-9 -10 -8 -16 6 -29 25 -22 38 -20 17 3 -17 18 -17 19 1
23 15 3 15 5 3 10 -8 3 -20 0 -27 -7z"/>
<path d="M5396 1455 c-3 -9 -6 -22 -5 -28 0 -7 5 -1 10 12 5 13 8 26 5 28 -2
2 -6 -3 -10 -12z"/>
<path d="M5458 1457 c-38 -15 -36 -29 2 -16 17 6 30 15 30 20 0 5 -1 9 -2 8
-2 -1 -15 -6 -30 -12z"/>
<path d="M5810 1459 c0 -5 5 -7 10 -4 6 3 10 8 10 11 0 2 -4 4 -10 4 -5 0 -10
-5 -10 -11z"/>
<path d="M5308 1449 c-4 -9 2 -21 15 -29 19 -11 20 -11 11 1 -6 8 -13 21 -16
28 -4 13 -5 13 -10 0z"/>
<path d="M5362 1440 c0 -14 2 -19 5 -12 2 6 2 18 0 25 -3 6 -5 1 -5 -13z"/>
<path d="M5757 1443 c-4 -3 -7 -11 -7 -17 0 -6 5 -5 12 2 6 6 9 14 7 17 -3 3
-9 2 -12 -2z"/>
<path d="M3447 1429 c7 -7 15 -10 18 -7 3 3 -2 9 -12 12 -14 6 -15 5 -6 -5z"/>
<path d="M3570 1430 c0 -5 5 -10 11 -10 5 0 7 5 4 10 -3 6 -8 10 -11 10 -2 0
-4 -4 -4 -10z"/>
<path d="M5663 1425 c0 -8 4 -12 9 -9 4 3 8 9 8 15 0 5 -4 9 -8 9 -5 0 -9 -7
-9 -15z"/>
<path d="M3496 1413 c-6 -14 -5 -15 5 -6 7 7 10 15 7 18 -3 3 -9 -2 -12 -12z"/>
<path d="M3340 1411 c0 -5 5 -13 10 -16 6 -3 10 -2 10 4 0 5 -4 13 -10 16 -5
3 -10 2 -10 -4z"/>
<path d="M5500 1400 c0 -11 -4 -20 -10 -20 -5 0 -10 -5 -10 -12 0 -6 3 -8 7
-5 3 4 12 2 20 -4 9 -9 13 -8 13 0 0 6 -4 11 -9 11 -4 0 -6 11 -3 25 2 14 2
25 -2 25 -3 0 -6 -9 -6 -20z"/>
<path d="M5637 1400 c3 -11 7 -20 9 -20 2 0 4 9 4 20 0 11 -4 20 -9 20 -5 0
-7 -9 -4 -20z"/>
<path d="M5820 1410 c-13 -9 -13 -10 0 -10 8 0 22 5 30 10 13 9 13 10 0 10 -8
0 -22 -5 -30 -10z"/>
<path d="M3520 1399 c0 -5 5 -7 10 -4 6 3 10 8 10 11 0 2 -4 4 -10 4 -5 0 -10
-5 -10 -11z"/>
<path d="M5530 1395 c0 -8 5 -15 10 -15 6 0 10 7 10 15 0 8 -4 15 -10 15 -5 0
-10 -7 -10 -15z"/>
<path d="M5774 1390 c1 -9 12 -15 29 -16 24 -1 24 -1 3 3 -14 2 -27 10 -29 16
-2 7 -3 5 -3 -3z"/>
<path d="M3381 1387 c-1 -14 -7 -16 -28 -12 -27 5 -27 5 -5 -6 26 -14 48 0 39
23 -4 9 -6 7 -6 -5z"/>
<path d="M3450 1390 c0 -5 10 -10 23 -10 18 0 19 2 7 10 -19 13 -30 13 -30 0z"/>
<path d="M3535 1380 c-3 -6 1 -7 9 -4 18 7 21 14 7 14 -6 0 -13 -4 -16 -10z"/>
<path d="M5415 1379 c-4 -6 -5 -13 -2 -16 7 -7 27 6 27 18 0 12 -17 12 -25 -2z"/>
<path d="M5376 1371 c-4 -5 -2 -12 3 -15 5 -4 12 -2 15 3 4 5 2 12 -3 15 -5 4
-12 2 -15 -3z"/>
<path d="M5549 1357 c-7 -15 -15 -24 -19 -22 -4 2 -7 -1 -8 -8 0 -7 -7 -30
-16 -52 -8 -22 -15 -49 -15 -60 l1 -20 8 20 c4 11 11 31 15 44 4 13 18 44 31
69 13 25 21 48 19 50 -2 3 -10 -7 -16 -21z"/>
<path d="M5695 1370 c-3 -5 -2 -10 4 -10 5 0 13 5 16 10 3 6 2 10 -4 10 -5 0
-13 -4 -16 -10z"/>
<path d="M3166 1362 c-3 -5 3 -17 14 -27 23 -21 26 -9 6 18 -8 10 -17 14 -20
9z"/>
<path d="M3407 1363 c-4 -3 -7 -15 -7 -25 0 -21 -4 -22 -33 -7 -21 10 -21 10
-3 -5 27 -22 35 -20 47 10 10 27 8 40 -4 27z"/>
<path d="M3460 1360 c0 -5 5 -10 11 -10 5 0 7 5 4 10 -3 6 -8 10 -11 10 -2 0
-4 -4 -4 -10z"/>
<path d="M3282 1345 c-2 -27 13 -51 22 -36 4 6 3 11 -3 11 -5 0 -12 10 -14 23
-4 19 -4 19 -5 2z"/>
<path d="M5721 1344 c-7 -8 -11 -17 -9 -20 3 -2 13 5 23 16 10 11 14 20 9 20
-5 -1 -15 -8 -23 -16z"/>
<path d="M3508 1338 c7 -7 16 -7 28 0 14 8 13 10 -10 10 -18 0 -24 -4 -18 -10z"/>
<path d="M5396 1331 c-3 -5 4 -11 16 -14 29 -8 32 -4 8 11 -10 6 -21 8 -24 3z"/>
<path d="M5673 1321 c1 -11 6 -17 14 -14 10 4 11 9 2 19 -15 19 -18 18 -16 -5z"/>
<path d="M5765 1311 c-9 -18 -11 -31 -5 -31 11 0 34 50 26 57 -2 3 -12 -9 -21
-26z"/>
<path d="M5886 1324 c-8 -22 -8 -24 7 -24 7 0 13 9 13 20 0 24 -11 26 -20 4z"/>
<path d="M3242 1310 c0 -14 2 -19 5 -12 2 6 2 18 0 25 -3 6 -5 1 -5 -13z"/>
<path d="M3462 1314 c3 -17 21 -21 26 -6 1 5 -4 12 -13 16 -11 4 -15 1 -13
-10z"/>
<path d="M5600 1319 c0 -6 -7 -9 -15 -5 -17 6 -19 -2 -6 -22 6 -11 10 -11 18
0 19 25 24 38 14 38 -6 0 -11 -5 -11 -11z"/>
<path d="M5810 1315 c0 -8 2 -15 4 -15 2 0 6 7 10 15 3 8 1 15 -4 15 -6 0 -10
-7 -10 -15z"/>
<path d="M3194 1303 c10 -11 37 -12 30 -2 -3 5 -12 9 -21 9 -9 0 -13 -3 -9 -7z"/>
<path d="M3311 1289 c-5 -13 -6 -28 -3 -34 3 -5 9 4 14 20 9 36 2 46 -11 14z"/>
<path d="M476 1293 c-4 -5 -20 -8 -34 -8 -42 0 -41 -41 2 -99 46 -59 46 -84 1
-31 -19 22 -35 36 -35 31 0 -5 -6 -3 -14 3 -11 10 -17 8 -29 -9 -11 -16 -16
-18 -20 -8 -3 8 -6 5 -6 -7 -1 -24 42 -120 58 -129 6 -4 11 -11 11 -16 0 -15
-69 24 -70 39 0 11 3 11 17 0 15 -13 15 -11 -1 19 -9 18 -20 31 -24 28 -4 -2
-18 2 -32 10 l-25 15 31 -5 c29 -5 31 -3 26 20 -2 14 -7 23 -10 20 -2 -3 -14
-1 -26 5 -17 8 -16 6 4 -10 24 -20 24 -21 4 -21 -12 0 -25 7 -28 16 -3 8 -10
12 -16 9 -6 -3 -10 4 -10 17 0 13 -3 18 -8 12 -4 -6 -15 -10 -24 -9 -11 2 -15
-3 -13 -15 2 -13 -1 -17 -10 -14 -20 8 -29 -15 -14 -42 18 -35 52 -31 68 9 13
30 14 31 18 9 3 -16 -3 -31 -18 -45 -21 -20 -23 -20 -51 -4 -27 16 -28 16 -18
-3 6 -11 21 -20 35 -20 17 0 25 -7 28 -22 4 -19 4 -18 6 5 0 17 5 26 12 22 6
-4 13 2 16 14 9 36 22 23 18 -16 -4 -29 -2 -34 6 -23 8 11 9 7 5 -18 -3 -18
-2 -31 3 -27 5 3 8 -3 6 -12 -2 -10 -4 -20 -4 -23 -1 -3 -6 2 -11 10 -7 11 -9
7 -7 -17 3 -22 17 -46 45 -75 35 -35 42 -49 42 -81 0 -42 11 -70 43 -104 22
-25 43 -31 31 -10 -4 6 -4 9 0 5 4 -3 8 -10 8 -15 -1 -4 7 -16 15 -25 24 -27
-3 -22 -41 7 -18 14 -38 25 -44 25 -10 0 -28 -57 -20 -65 2 -2 38 -1 81 2 80
6 92 16 66 53 -8 12 -9 9 -5 -12 4 -17 2 -28 -4 -28 -6 0 -13 13 -16 28 -4 22
-17 35 -52 52 -26 12 -42 25 -35 27 9 3 9 11 2 31 -6 15 -13 38 -16 52 -2 14
-8 26 -13 28 -5 2 -1 21 11 43 11 22 24 37 29 34 12 -8 13 -52 1 -59 -4 -3 -7
6 -5 21 3 29 -10 20 -21 -14 -4 -15 -2 -23 5 -23 7 0 10 -6 7 -13 -3 -7 3 -31
14 -53 10 -21 18 -44 19 -50 0 -11 22 -24 41 -24 17 0 9 19 -22 55 -27 30 -30
40 -25 73 3 20 7 42 8 49 1 7 5 10 9 8 3 -3 12 1 17 8 8 10 6 22 -8 45 -11 18
-20 36 -20 40 1 13 40 -40 40 -54 0 -16 9 -18 30 -4 13 8 12 10 -2 10 -10 0
-18 4 -18 10 0 5 -11 20 -25 34 -25 25 -34 43 -16 32 12 -8 41 3 41 15 0 6
-10 5 -21 -2 -17 -9 -20 -8 -17 3 3 8 20 13 46 13 37 0 41 2 37 20 -6 20 -6
20 9 0 49 -65 45 -62 46 -38 0 12 5 25 11 29 8 4 9 -1 5 -17 -6 -20 -5 -21 4
-6 6 9 8 22 5 27 -3 6 -2 10 2 10 19 0 29 -22 25 -55 -4 -34 -5 -35 -22 -20
-22 20 -45 9 -45 -20 0 -13 -20 -33 -58 -58 -79 -52 -95 -99 -48 -141 18 -17
19 -16 26 23 4 23 2 48 -4 60 -6 11 -7 22 -2 25 12 8 21 -4 21 -31 0 -23 0
-23 30 7 16 16 33 30 38 30 5 0 15 11 22 25 7 14 17 25 22 25 16 0 -15 -45
-58 -83 -66 -58 -78 -133 -28 -182 l24 -24 6 25 c4 14 4 28 0 31 -3 4 -6 -1
-6 -11 0 -16 -1 -16 -17 0 -10 9 -18 29 -20 43 l-2 26 13 -29 c8 -18 16 -25
20 -17 4 6 -2 26 -13 45 -11 18 -18 36 -14 39 3 4 11 -3 17 -15 17 -33 28 -30
64 18 42 58 44 112 5 163 l-28 36 27 -17 c29 -19 38 -15 38 18 0 12 6 24 14
27 8 3 20 15 26 26 8 16 8 19 -3 15 -7 -2 -19 7 -27 21 -12 23 -12 28 0 35 14
9 33 -7 25 -21 -3 -3 7 -11 20 -17 20 -9 25 -9 25 2 0 17 32 46 51 46 8 -1 1
-11 -16 -25 -20 -17 -25 -25 -14 -25 18 0 49 31 49 48 0 7 -8 12 -18 12 -11 0
-22 11 -28 27 -8 25 -10 26 -26 10 -19 -19 -53 -24 -42 -5 4 6 3 8 -4 4 -6 -4
-12 4 -14 21 -2 20 -9 28 -23 28 -11 1 -30 6 -42 13 -18 10 -23 9 -31 -5 -6
-10 -6 -26 -2 -39 7 -16 5 -24 -6 -28 -8 -3 -14 -1 -14 4 0 6 -7 10 -15 10 -8
0 -15 5 -15 10 0 6 5 10 10 10 6 0 10 9 10 20 0 11 -4 20 -9 20 -5 0 -12 11
-15 25 -6 24 -25 33 -40 18z m15 -67 c-14 -16 -4 -46 12 -40 7 2 18 0 25 -5
12 -7 12 -12 1 -30 -19 -30 -38 -26 -45 9 -4 16 -10 27 -15 24 -5 -3 -6 1 -3
9 3 8 0 18 -7 23 -8 5 -10 3 -4 -6 5 -8 3 -11 -5 -8 -7 2 -14 11 -16 20 -1 8
-5 25 -9 37 -9 30 13 27 27 -4 l12 -26 15 33 15 33 4 -28 c2 -16 -1 -34 -7
-41z m119 -28 c0 -10 5 -18 10 -18 6 0 10 2 10 4 0 2 3 12 7 22 5 13 3 15 -7
9 -8 -5 -11 -4 -6 3 7 12 36 5 36 -8 0 -11 -29 -40 -40 -40 -18 0 -40 32 -40
58 1 26 1 26 15 8 8 -11 15 -28 15 -38z m-80 34 c0 -11 -22 -32 -32 -32 -5 0
-4 9 2 20 11 20 30 28 30 12z m-290 -88 c0 -29 -24 -42 -45 -24 -25 21 -17 33
10 16 l25 -16 -7 31 c-4 23 -3 30 5 25 7 -4 12 -18 12 -32z m146 -10 c-3 -8
-10 -14 -15 -14 -10 0 -9 9 6 48 6 16 6 16 10 -1 3 -10 2 -25 -1 -33z m75 -25
c12 -16 11 -22 -16 -69 -19 -32 -20 -104 -2 -94 6 4 9 4 5 -1 -4 -4 -2 -15 5
-23 10 -13 9 -14 -3 -10 -8 2 -20 15 -26 27 -10 20 -12 20 -18 4 -6 -15 -9
-15 -17 -3 -9 12 -10 11 -6 -6 5 -23 -8 -54 -23 -54 -6 0 -5 11 1 26 5 15 7
29 4 32 -2 3 -9 -6 -14 -19 -8 -21 -9 -20 -9 14 1 28 5 37 19 37 10 0 21 5 25
11 5 8 9 8 14 -1 5 -8 10 -3 14 14 4 18 -1 35 -19 62 -14 20 -25 42 -25 47 0
6 12 -8 27 -31 15 -24 30 -37 32 -30 2 7 10 26 18 42 11 21 12 27 2 24 -20 -7
-45 25 -41 50 5 23 5 23 23 -5 10 -15 24 -35 30 -44z m289 57 c0 -22 -35 -60
-48 -52 -7 4 -12 17 -12 29 1 21 1 21 14 4 13 -16 14 -16 20 8 7 26 26 35 26
11z m-165 -6 c4 -6 10 -8 15 -5 4 3 6 -4 3 -15 -5 -20 -7 -20 -24 -4 -11 9
-19 21 -19 26 0 11 18 10 25 -2z m85 0 c0 -6 -11 -16 -25 -22 -14 -6 -25 -18
-25 -26 0 -9 3 -12 6 -9 7 7 44 -30 44 -45 0 -17 -22 -7 -27 12 -7 27 -19 25
-48 -7 -13 -16 -25 -22 -25 -15 0 7 9 20 20 29 11 10 20 26 20 37 0 11 7 28
17 38 17 20 43 24 43 8z m-71 -60 c1 -3 -9 -11 -21 -19 -19 -12 -23 -11 -35 5
-8 11 -13 13 -13 5 0 -11 -3 -11 -17 0 -15 11 -16 11 -5 -1 17 -20 15 -30 -8
-30 -15 0 -20 7 -20 29 0 22 4 29 18 27 9 -2 23 5 30 16 13 18 14 18 42 -4 16
-13 29 -25 29 -28z m-181 8 c7 -7 12 -21 12 -32 -1 -20 -1 -20 -20 3 -29 34
-22 59 8 29z m-84 -43 c-6 -31 -4 -35 15 -35 12 0 19 -4 16 -10 -12 -19 -41
-11 -42 12 -1 11 -7 24 -13 28 -8 5 -6 12 5 24 24 23 27 20 19 -19z m56 -65
c0 -14 -24 -23 -47 -17 -15 3 -14 6 7 15 32 14 40 14 40 2z m214 -64 c-6 -16
-8 -17 -16 -2 -11 19 0 42 13 29 6 -6 7 -18 3 -27z m-274 -3 c0 -20 -3 -24
-11 -16 -7 7 -9 19 -6 27 10 24 17 19 17 -11z m250 -14 c0 -11 -4 -17 -10 -14
-5 3 -10 13 -10 21 0 8 5 14 10 14 6 0 10 -9 10 -21z m-34 -35 c-16 -11 -22
-11 -28 -1 -11 17 22 41 36 26 8 -7 5 -15 -8 -25z m80 -19 c-3 -9 -12 -12 -21
-9 -14 6 -14 9 2 26 18 20 30 10 19 -17z m-53 -35 c-5 -19 -23 -29 -23 -12 0
7 20 32 26 32 1 0 0 -9 -3 -20z m30 -5 c-5 -13 -23 -22 -23 -11 0 15 14 35 21
31 4 -3 6 -12 2 -20z m-113 6 c0 -6 -5 -13 -10 -16 -6 -4 -7 -12 -4 -18 4 -7
3 -9 -1 -4 -16 14 -16 47 0 47 8 0 15 -4 15 -9z m90 -35 c0 -3 -4 -8 -10 -11
-5 -3 -10 -1 -10 4 0 6 5 11 10 11 6 0 10 -2 10 -4z m-122 -61 c-3 -3 -9 2
-12 12 -6 14 -5 15 5 6 7 -7 10 -15 7 -18z m-8 -101 c0 -2 -16 -4 -35 -4 -26
0 -33 4 -29 14 4 11 12 12 35 4 16 -5 29 -12 29 -14z"/>
<path d="M495 1170 c-3 -5 -3 -15 1 -21 6 -11 23 6 24 24 0 10 -18 9 -25 -3z"/>
<path d="M3366 1291 c-4 -5 -2 -12 3 -15 5 -4 12 -2 15 3 4 5 2 12 -3 15 -5 4
-12 2 -15 -3z"/>
<path d="M299 1278 c-1 -7 -1 -16 -1 -19 1 -4 -6 -6 -16 -5 -12 1 -17 -7 -18
-26 -1 -15 2 -26 5 -25 3 1 16 -4 28 -11 15 -8 29 -9 47 -2 43 16 56 70 16 70
-10 0 -20 7 -24 15 -7 18 -36 20 -37 3z m31 -34 l0 -36 20 23 c15 19 19 20 20
8 0 -37 -58 -49 -86 -18 -16 17 -16 19 -1 19 10 0 17 -4 17 -10 0 -5 4 -10 8
-10 5 0 7 14 4 30 -3 18 0 30 7 30 6 0 11 -16 11 -36z"/>
<path d="M5550 1286 c0 -5 7 -17 16 -27 16 -18 44 -16 44 4 0 7 -4 7 -12 -1
-10 -10 -16 -8 -30 10 -10 13 -18 19 -18 14z"/>
<path d="M5651 1273 c-1 -26 10 -35 29 -22 13 7 12 9 -2 9 -9 0 -19 8 -21 18
-4 13 -5 12 -6 -5z"/>
<path d="M5820 1281 c0 -5 5 -13 10 -16 6 -3 10 -2 10 4 0 5 -4 13 -10 16 -5
3 -10 2 -10 -4z"/>
<path d="M3200 1270 c20 -13 33 -13 25 0 -3 6 -14 10 -23 10 -15 0 -15 -2 -2
-10z"/>
<path d="M3257 1265 c-4 -11 -10 -27 -14 -35 -4 -10 -1 -10 11 3 10 9 16 25
14 35 -3 15 -5 15 -11 -3z"/>
<path d="M3623 1255 c-6 -14 -9 -25 -6 -25 9 0 33 29 33 39 0 19 -15 11 -27
-14z"/>
<path d="M5398 1273 c6 -2 18 -2 25 0 6 3 1 5 -13 5 -14 0 -19 -2 -12 -5z"/>
<path d="M5721 1263 c-1 -12 4 -25 10 -28 14 -9 27 4 13 13 -6 4 -14 14 -17
22 -4 10 -6 8 -6 -7z"/>
<path d="M5795 1270 c-8 -12 2 -30 17 -30 7 0 7 4 -1 13 -6 8 -8 17 -4 20 3 4
4 7 0 7 -3 0 -9 -4 -12 -10z"/>
<path d="M3507 1259 c7 -7 15 -10 18 -7 3 3 -2 9 -12 12 -14 6 -15 5 -6 -5z"/>
<path d="M5457 1238 c7 -46 13 -48 13 -5 0 21 -4 37 -9 37 -5 0 -7 -15 -4 -32z"/>
<path d="M3416 1244 c-9 -23 -4 -24 17 -2 13 14 14 18 3 18 -8 0 -17 -7 -20
-16z"/>
<path d="M3536 1245 c-3 -8 -1 -15 4 -15 6 0 10 7 10 15 0 8 -2 15 -4 15 -2 0
-6 -7 -10 -15z"/>
<path d="M3481 1234 c0 -11 3 -14 6 -6 3 7 2 16 -1 19 -3 4 -6 -2 -5 -13z"/>
<path d="M5353 1243 c-15 -5 -17 -23 -4 -23 5 0 11 7 15 15 3 8 4 15 3 14 -1
0 -8 -3 -14 -6z"/>
<path d="M5285 1220 c21 -24 26 -25 19 -6 -3 8 -13 17 -22 21 -13 5 -13 2 3
-15z"/>
<path d="M5614 1227 c-16 -19 -24 -47 -14 -47 6 0 10 7 10 16 0 8 4 13 8 10 4
-2 13 4 20 15 10 15 10 19 0 19 -7 -1 -18 -6 -24 -13z"/>
<path d="M3198 1223 c7 -3 16 -2 19 1 4 3 -2 6 -13 5 -11 0 -14 -3 -6 -6z"/>
<path d="M3445 1220 c-3 -5 -1 -10 4 -10 6 0 11 5 11 10 0 6 -2 10 -4 10 -3 0
-8 -4 -11 -10z"/>
<path d="M5755 1210 c-18 -20 -17 -20 21 -19 23 1 30 3 17 6 -25 5 -30 18 -10
26 7 3 7 6 1 6 -6 1 -19 -8 -29 -19z"/>
<path d="M3310 1206 c0 -9 5 -16 10 -16 6 0 10 4 10 9 0 6 -4 13 -10 16 -5 3
-10 -1 -10 -9z"/>
<path d="M3386 1211 c-4 -7 -5 -15 -2 -18 9 -9 19 4 14 18 -4 11 -6 11 -12 0z"/>
<path d="M3648 1213 c7 -3 16 -2 19 1 4 3 -2 6 -13 5 -11 0 -14 -3 -6 -6z"/>
<path d="M3536 1196 c3 -9 11 -16 16 -16 13 0 5 23 -10 28 -7 2 -10 -2 -6 -12z"/>
<path d="M5571 1194 c0 -11 3 -14 6 -6 3 7 2 16 -1 19 -3 4 -6 -2 -5 -13z"/>
<path d="M3208 1193 c6 -2 18 -2 25 0 6 3 1 5 -13 5 -14 0 -19 -2 -12 -5z"/>
<path d="M3471 1184 c-19 -14 -25 -14 -32 -3 -5 8 -9 10 -9 5 0 -5 7 -17 15
-26 9 -10 22 -48 30 -86 l15 -69 -5 55 c-2 30 -7 70 -11 88 -5 25 -3 32 10 32
9 0 16 5 16 10 0 13 -2 13 -29 -6z"/>
<path d="M3552 1166 c-20 -19 -34 -37 -31 -40 3 -3 23 12 44 34 48 49 39 53
-13 6z"/>
<path d="M3660 1196 c0 -2 7 -7 16 -10 8 -3 12 -2 9 4 -6 10 -25 14 -25 6z"/>
<path d="M5315 1190 c-9 -14 30 -49 54 -50 12 0 11 3 -2 13 -9 6 -23 21 -30
31 -11 15 -16 16 -22 6z"/>
<path d="M5716 1176 c6 -16 34 -30 42 -21 6 5 -28 34 -40 35 -4 0 -5 -6 -2
-14z"/>
<path d="M3120 1176 c0 -2 7 -6 15 -10 8 -3 15 -1 15 4 0 6 -7 10 -15 10 -8 0
-15 -2 -15 -4z"/>
<path d="M3206 1153 c5 -23 3 -33 -6 -33 -10 0 -10 -3 0 -15 14 -17 40 -20 40
-5 0 6 -4 10 -10 10 -5 0 -10 10 -10 23 0 12 -5 29 -10 37 -7 11 -8 6 -4 -17z"/>
<path d="M3620 1166 c0 -8 -6 -16 -12 -19 -7 -2 -10 -7 -7 -11 7 -8 39 21 39
35 0 5 -4 9 -10 9 -5 0 -10 -6 -10 -14z"/>
<path d="M5467 1173 c-4 -3 -7 -18 -7 -31 0 -31 7 -26 14 11 5 28 4 31 -7 20z"/>
<path d="M5648 1173 c6 -2 18 -2 25 0 6 3 1 5 -13 5 -14 0 -19 -2 -12 -5z"/>
<path d="M3241 1163 c0 -4 4 -17 9 -28 8 -19 9 -19 9 2 1 12 -3 25 -9 28 -5 3
-10 3 -9 -2z"/>
<path d="M3321 1141 c24 -30 19 -36 -18 -24 -25 9 -28 8 -29 -13 -2 -25 11
-33 18 -12 6 16 58 17 58 1 0 -7 16 -25 35 -40 19 -15 31 -30 27 -33 -4 -3 7
-20 25 -37 24 -25 30 -28 26 -13 -3 13 0 20 8 20 8 1 1 8 -14 16 -21 11 -27
21 -24 35 4 16 3 18 -8 9 -16 -13 -70 45 -79 87 -5 19 -13 29 -25 29 -19 0
-19 -1 0 -25z m134 -149 c-3 -3 -11 0 -18 7 -9 10 -8 11 6 5 10 -3 15 -9 12
-12z"/>
<path d="M3391 1144 c13 -16 29 -19 29 -5 0 5 -9 11 -21 14 -16 4 -18 3 -8 -9z"/>
<path d="M3680 1150 c0 -5 5 -10 11 -10 5 0 7 5 4 10 -3 6 -8 10 -11 10 -2 0
-4 -4 -4 -10z"/>
<path d="M5646 1151 c-3 -5 1 -14 8 -20 10 -8 16 -9 21 -1 3 5 -1 10 -10 10
-9 0 -13 5 -10 10 3 6 4 10 1 10 -3 0 -7 -4 -10 -9z"/>
<path d="M821 1140 c2 -8 -6 -25 -19 -38 -15 -15 -21 -30 -18 -47 4 -21 2 -24
-13 -16 -37 20 -111 -11 -111 -46 0 -20 4 -23 20 -18 11 4 20 2 20 -4 0 -6 -6
-11 -14 -11 -8 0 -17 -8 -19 -17 -4 -17 -5 -17 -6 0 0 9 -6 17 -12 17 -7 0 -8
-7 -4 -17 5 -10 11 -36 14 -58 6 -38 7 -40 41 -38 41 2 63 27 57 66 -2 15 0
27 4 27 4 0 4 14 -1 30 -6 21 -5 28 2 24 6 -4 8 1 3 16 -5 16 -4 21 6 18 8 -3
16 -15 17 -27 2 -14 0 -21 -7 -17 -7 5 -9 -9 -5 -39 2 -25 -1 -55 -6 -66 -10
-18 -9 -19 17 -13 37 9 38 10 24 36 l-12 23 5 -22 c2 -14 -1 -23 -9 -23 -8 0
-11 9 -7 25 2 14 8 25 12 25 16 0 41 -33 36 -46 -3 -8 0 -14 6 -14 6 0 8 11 4
31 -5 24 -1 35 19 53 14 13 25 30 25 38 0 22 -35 29 -57 12 -16 -12 -15 -13
15 -8 21 4 32 3 32 -5 0 -10 -21 -15 -57 -14 -6 0 -14 -6 -17 -13 -3 -9 2 -14
14 -14 11 0 20 -4 20 -10 0 -5 -8 -7 -17 -4 -10 3 -24 8 -31 10 -10 3 -9 9 4
29 13 20 14 28 4 40 -8 10 -9 15 -1 15 7 0 8 11 4 32 -5 24 -3 29 7 23 8 -5
10 -20 7 -41 -6 -38 2 -43 26 -16 30 33 31 67 2 98 -15 16 -25 22 -24 14z m29
-59 c0 -17 -4 -33 -10 -36 -6 -4 -10 8 -10 29 0 20 5 36 10 36 6 0 10 -13 10
-29z m-100 -56 c0 -8 -6 -15 -14 -15 -8 0 -17 -7 -20 -15 -5 -13 -10 -14 -27
-5 l-21 12 21 15 c12 8 28 12 36 9 8 -3 15 -1 15 4 0 6 2 10 5 10 3 0 5 -7 5
-15z m-3 -73 c-3 -14 -6 -12 -14 8 -6 14 -8 29 -5 34 7 13 24 -22 19 -42z m3
-50 c0 -12 -45 -42 -63 -42 -9 0 -14 10 -14 25 0 13 4 22 9 19 5 -3 6 7 3 23
l-6 28 14 -24 c12 -20 15 -21 20 -7 4 9 2 16 -4 16 -6 0 -7 5 -4 10 7 11 45
-30 45 -48z"/>
<path d="M714 906 c-11 -6 -19 -16 -17 -23 3 -8 11 -5 24 8 24 24 22 30 -7 15z"/>
<path d="M3140 1139 c0 -5 5 -7 10 -4 6 3 10 8 10 11 0 2 -4 4 -10 4 -5 0 -10
-5 -10 -11z"/>
<path d="M5390 1130 c-9 -6 -10 -10 -3 -10 6 0 15 5 18 10 8 12 4 12 -15 0z"/>
<path d="M3421 1107 c-13 -21 -12 -21 5 -5 10 10 16 20 13 22 -3 3 -11 -5 -18
-17z"/>
<path d="M3551 1121 c-7 -5 -9 -11 -4 -14 4 -3 17 1 28 9 21 16 0 20 -24 5z"/>
<path d="M3636 1115 c-3 -8 -1 -15 4 -15 6 0 10 7 10 15 0 8 -2 15 -4 15 -2 0
-6 -7 -10 -15z"/>
<path d="M5531 1108 c-14 -23 -14 -23 8 -4 22 20 25 26 13 26 -4 0 -13 -10
-21 -22z"/>
<path d="M5423 1112 c-7 -4 -9 -13 -4 -21 6 -9 10 -7 14 8 3 12 4 21 4 21 -1
0 -7 -4 -14 -8z"/>
<path d="M5870 1109 c0 -5 5 -7 10 -4 6 3 10 8 10 11 0 2 -4 4 -10 4 -5 0 -10
-5 -10 -11z"/>
<path d="M104 1099 c-3 -6 -15 -8 -26 -6 -25 7 -35 -19 -19 -45 9 -15 9 -23 1
-33 -9 -10 -7 -16 7 -22 10 -5 25 -8 33 -7 8 1 21 2 28 3 8 1 10 6 6 14 -6 9
-4 9 8 -1 14 -11 18 -9 26 15 l10 28 1 -32 c1 -17 -3 -33 -8 -35 -5 -2 -4 -24
4 -53 8 -27 14 -40 14 -28 1 12 -3 33 -9 47 -6 17 -6 26 0 26 6 0 10 -6 10
-14 0 -8 7 -17 15 -20 14 -5 14 -9 -1 -38 -15 -30 -15 -32 2 -46 11 -7 49 -28
86 -46 l66 -32 5 23 c3 18 -9 39 -55 89 -32 36 -61 78 -65 95 -8 39 -18 44
-38 17 l-17 -23 7 23 c4 13 1 29 -6 38 -10 13 -14 12 -32 -3 -20 -17 -20 -17
-14 0 14 38 -20 96 -39 66z m26 -40 c0 -22 -5 -29 -18 -29 -22 0 -59 37 -48
48 4 4 16 -4 27 -17 l19 -23 0 31 c0 19 4 30 10 26 6 -3 10 -19 10 -36z m-10
-49 c0 -5 -12 -10 -26 -10 -14 0 -23 4 -19 10 3 6 15 10 26 10 10 0 19 -4 19
-10z m110 -24 c0 -7 -8 -20 -17 -27 -15 -12 -16 -12 -10 4 4 10 7 23 7 28 0 5
5 9 10 9 6 0 10 -6 10 -14z m26 -57 c19 -21 19 -21 -1 -18 -13 3 -21 -2 -23
-16 -6 -30 -22 -43 -22 -18 0 11 7 26 15 33 12 10 13 16 4 26 -19 23 6 16 27
-7z m12 -40 c-19 -13 -28 -11 -28 5 0 9 7 12 21 9 16 -4 17 -8 7 -14z m27 -19
c-3 -5 -16 -10 -28 -10 -18 0 -19 2 -7 10 20 13 43 13 35 0z m-40 -28 c-3 -3
-11 0 -18 7 -9 10 -8 11 6 5 10 -3 15 -9 12 -12z m69 12 c18 -7 22 -39 6 -49
-6 -4 -10 5 -10 19 0 14 -5 26 -11 26 -6 0 -9 -9 -6 -20 6 -24 -8 -27 -17 -3
-4 9 -1 20 6 25 16 9 13 9 32 2z"/>
<path d="M3504 1096 c-3 -8 -4 -23 -2 -33 3 -11 6 -6 9 15 6 34 2 42 -7 18z"/>
<path d="M3596 1079 c12 -13 20 -16 22 -9 3 7 -2 16 -9 21 -25 16 -32 9 -13
-12z"/>
<path d="M5833 1078 c-13 -6 -23 -15 -23 -20 0 -10 36 7 45 22 7 12 7 12 -22
-2z"/>
<path d="M707 1066 c-3 -7 9 -11 29 -11 19 0 34 3 34 8 0 4 -3 8 -7 8 -35 6
-53 5 -56 -5z"/>
<path d="M3250 1065 c7 -9 15 -13 17 -11 7 7 -7 26 -19 26 -6 0 -6 -6 2 -15z"/>
<path d="M267 1028 c-11 -39 -8 -75 8 -88 12 -10 13 -7 5 22 -13 42 -12 57 0
38 8 -12 10 -12 10 5 0 11 -4 26 -9 33 -6 10 -10 8 -14 -10z"/>
<path d="M3300 1042 c0 -5 -10 -14 -22 -20 -18 -8 -19 -11 -6 -11 9 -1 20 4
23 9 3 6 17 10 29 10 20 0 22 -4 18 -26 -3 -17 -1 -25 5 -21 13 8 24 46 15 51
-18 10 -62 15 -62 8z"/>
<path d="M500 1030 c0 -5 8 -11 18 -13 10 -3 6 -5 -10 -6 -31 -1 -36 -12 -13
-31 8 -7 12 -17 8 -23 -3 -5 -1 -7 5 -3 5 3 12 1 14 -6 4 -10 8 -9 19 2 19 19
30 58 19 65 -5 3 -11 -5 -13 -17 -4 -21 -4 -20 -6 3 -1 18 -8 28 -21 32 -11 3
-20 1 -20 -3z m28 -48 c2 -7 -2 -10 -12 -6 -9 3 -16 11 -16 16 0 13 23 5 28
-10z"/>
<path d="M5737 1003 c-16 -8 -26 -17 -24 -20 3 -2 22 5 43 16 21 12 32 21 24
20 -8 -1 -28 -8 -43 -16z"/>
<path d="M5511 1000 c0 -8 4 -24 9 -35 5 -13 9 -14 9 -5 0 8 -4 24 -9 35 -5
13 -9 14 -9 5z"/>
<path d="M5431 984 c0 -11 3 -14 6 -6 3 7 2 16 -1 19 -3 4 -6 -2 -5 -13z"/>
<path d="M93 967 c-9 -14 19 -38 38 -32 14 5 19 1 19 -12 0 -14 -7 -19 -27
-18 -23 0 -28 -4 -26 -22 2 -13 -3 -23 -10 -24 -25 -1 -49 -8 -55 -15 -4 -4 1
-4 10 -1 10 3 20 2 23 -3 4 -6 0 -10 -8 -10 -8 0 -20 -7 -27 -15 -10 -11 -9
-18 4 -30 9 -9 16 -14 16 -10 0 3 9 1 20 -5 14 -7 20 -7 20 0 0 5 4 10 10 10
6 0 6 -9 0 -26 -16 -42 8 -58 49 -32 15 9 24 8 46 -6 26 -17 26 -17 15 4 -6
12 -9 24 -6 28 10 9 27 -13 29 -37 1 -13 6 -20 15 -16 7 2 10 0 7 -5 -3 -6 -2
-10 4 -10 5 0 12 4 15 9 7 10 -18 34 -27 25 -3 -3 -4 1 -3 10 3 21 16 33 17
15 0 -8 5 -3 11 11 9 21 12 22 15 8 4 -14 9 -16 23 -8 14 7 23 6 34 -6 20 -20
20 -30 0 -38 -24 -9 -37 3 -22 22 11 13 11 14 -8 4 -12 -6 -24 -8 -28 -5 -3 3
-6 2 -6 -3 0 -20 25 -34 60 -34 47 0 52 6 35 40 -19 37 -68 55 -144 54 -59 -2
-66 -4 -88 -33 -24 -31 -43 -40 -43 -21 0 17 55 66 70 62 8 -2 4 6 -10 17 -20
17 -22 21 -8 21 10 0 23 -8 29 -18 8 -13 20 -17 40 -14 16 2 26 9 23 14 -3 5
-13 7 -21 4 -8 -3 -11 -1 -8 4 3 6 -1 13 -10 16 -21 9 -45 56 -45 92 0 26 -3
28 -32 26 -18 -2 -24 -1 -13 2 33 9 39 22 10 21 -15 -1 -29 -6 -32 -10z m45
-73 c12 -4 22 -9 22 -13 0 -13 -39 -9 -51 5 -12 15 -6 17 29 8z m39 -49 c4
-14 -56 -10 -70 4 -9 10 -4 12 27 9 22 -2 41 -8 43 -13z m-56 -38 c12 -18 17
-27 10 -21 -7 7 -29 10 -51 7 -22 -3 -40 -1 -44 6 -5 7 5 11 30 11 30 0 35 3
26 12 -14 14 -16 32 -2 23 5 -3 19 -20 31 -38z m139 -33 c0 -3 -6 -11 -13 -18
-10 -10 -15 -10 -24 -1 -7 7 -9 16 -6 19 8 8 43 8 43 0z m-62 -16 c-6 -18 -28
-21 -28 -4 0 9 7 16 16 16 9 0 14 -5 12 -12z"/>
<path d="M5342 970 c14 -4 32 -11 40 -16 10 -6 10 -4 -1 9 -7 9 -25 17 -40 16
l-26 -1 27 -8z"/>
<path d="M5675 960 c-3 -5 1 -10 10 -10 9 0 13 5 10 10 -3 6 -8 10 -10 10 -2
0 -7 -4 -10 -10z"/>
<path d="M5630 950 c0 -5 5 -10 10 -10 6 0 10 5 10 10 0 6 -4 10 -10 10 -5 0
-10 -4 -10 -10z"/>
<path d="M5606 935 c-3 -9 -10 -13 -16 -10 -5 3 -10 1 -10 -4 0 -6 4 -11 9
-11 12 0 35 29 29 36 -3 3 -8 -2 -12 -11z"/>
<path d="M3646 924 c-4 -10 -1 -14 6 -12 15 5 23 28 10 28 -5 0 -13 -7 -16
-16z"/>
<path d="M5540 936 c0 -2 7 -7 16 -10 8 -3 12 -2 9 4 -6 10 -25 14 -25 6z"/>
<path d="M3531 914 c0 -11 3 -14 6 -6 3 7 2 16 -1 19 -3 4 -6 -2 -5 -13z"/>
<path d="M3471 894 c0 -11 3 -14 6 -6 3 7 2 16 -1 19 -3 4 -6 -2 -5 -13z"/>
<path d="M3576 881 c-3 -4 6 -6 19 -3 14 2 25 6 25 8 0 8 -39 4 -44 -5z"/>
<path d="M3348 863 c12 -2 30 -2 40 0 9 3 -1 5 -23 4 -22 0 -30 -2 -17 -4z"/>
<path d="M785 853 c-40 -8 -75 -26 -75 -36 0 -6 -14 -26 -32 -44 -27 -28 -29
-33 -13 -33 31 0 85 23 85 36 0 7 3 21 6 31 5 17 4 16 -10 -1 -9 -11 -19 -17
-22 -13 -10 10 39 47 56 43 9 -1 21 3 28 11 13 13 11 14 -23 6z m-70 -90 c-28
-20 -41 -16 -20 7 10 11 22 17 28 13 6 -4 3 -12 -8 -20z"/>
<path d="M3268 830 c-18 -16 -27 -30 -21 -30 7 0 18 9 25 20 7 11 18 20 25 20
6 0 15 5 18 10 13 21 -16 9 -47 -20z"/>
<path d="M5228 803 c7 -3 16 -2 19 1 4 3 -2 6 -13 5 -11 0 -14 -3 -6 -6z"/>
<path d="M2155 790 c-4 -6 3 -10 14 -10 25 0 27 6 6 13 -8 4 -17 2 -20 -3z"/>
<path d="M2268 793 c6 -2 18 -2 25 0 6 3 1 5 -13 5 -14 0 -19 -2 -12 -5z"/>
<path d="M2358 793 c6 -2 18 -2 25 0 6 3 1 5 -13 5 -14 0 -19 -2 -12 -5z"/>
<path d="M2055 780 c-7 -12 12 -12 40 0 18 8 17 9 -7 9 -15 1 -30 -3 -33 -9z"/>
<path d="M2480 778 c0 -5 11 -8 25 -8 14 0 25 3 25 8 0 4 -11 7 -25 7 -14 0
-25 -3 -25 -7z"/>
<path d="M5508 783 c7 -3 16 -2 19 1 4 3 -2 6 -13 5 -11 0 -14 -3 -6 -6z"/>
<path d="M1990 771 c0 -4 11 -6 25 -3 14 2 25 6 25 8 0 2 -11 4 -25 4 -14 0
-25 -4 -25 -9z"/>
<path d="M2553 773 c9 -2 25 -2 35 0 9 3 1 5 -18 5 -19 0 -27 -2 -17 -5z"/>
<path d="M5900 770 c94 -19 104 -20 95 -11 -6 5 -39 12 -75 15 -58 5 -60 4
-20 -4z"/>
<path d="M1875 755 c-27 -7 -68 -14 -90 -15 -22 -1 -49 -5 -60 -10 -30 -13 76
0 175 21 47 9 72 17 55 17 -16 0 -52 -6 -80 -13z"/>
<path d="M2668 758 c5 -5 16 -8 23 -6 8 3 3 7 -10 11 -17 4 -21 3 -13 -5z"/>
<path d="M5805 760 c-16 -7 -17 -9 -3 -9 9 -1 20 4 23 9 7 11 7 11 -20 0z"/>
<path d="M3675 748 c-133 -11 -136 -17 -5 -11 147 7 158 8 167 17 7 7 -5 6
-162 -6z"/>
<path d="M2721 746 c3 -3 27 -10 53 -15 26 -5 44 -5 39 -1 -9 9 -101 25 -92
16z"/>
<path d="M5758 743 c7 -3 16 -2 19 1 4 3 -2 6 -13 5 -11 0 -14 -3 -6 -6z"/>
<path d="M4468 733 c6 -2 18 -2 25 0 6 3 1 5 -13 5 -14 0 -19 -2 -12 -5z"/>
<path d="M3488 723 c12 -2 32 -2 45 0 12 2 2 4 -23 4 -25 0 -35 -2 -22 -4z"/>
<path d="M138 695 c-19 -25 -12 -37 31 -50 16 -5 21 -4 17 4 -4 6 -2 11 4 11
6 0 15 -11 20 -25 12 -31 33 -32 52 -3 14 20 17 21 34 8 15 -11 17 -11 7 0
-18 20 -16 35 2 20 12 -10 15 -10 15 1 1 10 4 9 14 -4 11 -14 15 -15 25 -3 9
11 6 15 -15 20 -38 10 -82 -2 -89 -25 -4 -10 -13 -19 -21 -19 -12 0 -12 4 -2
20 16 24 -3 50 -24 33 -22 -17 -71 -26 -66 -11 3 7 14 15 26 18 21 5 21 6 5
16 -15 9 -22 7 -35 -11z m92 -29 c0 -3 -4 -8 -10 -11 -5 -3 -10 -1 -10 4 0 6
5 11 10 11 6 0 10 -2 10 -4z"/>
<path d="M1575 710 l-70 -6 67 -2 c37 -1 70 3 73 8 3 6 5 9 3 8 -2 -1 -34 -4
-73 -8z"/>
<path d="M3345 710 l-40 -7 48 -2 c30 0 46 3 42 9 -3 6 -7 9 -8 9 -1 -1 -20
-5 -42 -9z"/>
<path d="M4551 716 c2 -2 29 -6 59 -9 36 -4 46 -3 30 3 -25 8 -97 13 -89 6z"/>
<path d="M5648 713 c7 -3 16 -2 19 1 4 3 -2 6 -13 5 -11 0 -14 -3 -6 -6z"/>
<path d="M1463 703 c9 -2 23 -2 30 0 6 3 -1 5 -18 5 -16 0 -22 -2 -12 -5z"/>
<path d="M5568 703 c7 -3 16 -2 19 1 4 3 -2 6 -13 5 -11 0 -14 -3 -6 -6z"/>
<path d="M3233 692 c-6 -4 6 -7 28 -7 21 0 39 3 39 7 0 10 -51 10 -67 0z"/>
<path d="M4678 693 c7 -3 16 -2 19 1 4 3 -2 6 -13 5 -11 0 -14 -3 -6 -6z"/>
<path d="M5495 690 c-18 -8 -18 -9 5 -9 14 0 32 4 40 9 12 8 12 10 -5 9 -11 0
-29 -4 -40 -9z"/>
<path d="M3975 680 c-13 -5 -14 -9 -5 -9 8 0 24 4 35 9 13 5 14 9 5 9 -8 0
-24 -4 -35 -9z"/>
<path d="M3125 670 c-19 -8 -19 -9 2 -9 12 -1 25 4 28 9 7 12 -2 12 -30 0z"/>
<path d="M3178 673 c7 -3 16 -2 19 1 4 3 -2 6 -13 5 -11 0 -14 -3 -6 -6z"/>
<path d="M4768 673 c6 -2 18 -2 25 0 6 3 1 5 -13 5 -14 0 -19 -2 -12 -5z"/>
<path d="M5438 673 c7 -3 16 -2 19 1 4 3 -2 6 -13 5 -11 0 -14 -3 -6 -6z"/>
<path d="M3080 660 c-13 -8 -12 -10 3 -10 9 0 17 5 17 10 0 12 -1 12 -20 0z"/>
<path d="M4850 654 c25 -7 52 -13 60 -13 8 0 -5 7 -30 15 -25 7 -52 13 -60 13
-8 0 5 -7 30 -15z"/>
<path d="M5380 660 c-18 -12 -2 -12 25 0 13 6 15 9 5 9 -8 0 -22 -4 -30 -9z"/>
<path d="M5905 658 c-33 -4 -64 -10 -70 -13 -5 -3 8 -3 30 0 22 3 59 5 83 5
23 0 42 4 42 8 0 10 -7 10 -85 0z"/>
<path d="M5533 654 c10 -11 57 -13 57 -3 0 5 -14 9 -32 9 -17 0 -28 -3 -25 -6z"/>
<path d="M2990 639 c0 -5 5 -7 10 -4 6 3 10 8 10 11 0 2 -4 4 -10 4 -5 0 -10
-5 -10 -11z"/>
<path d="M3028 643 c6 -2 18 -2 25 0 6 3 1 5 -13 5 -14 0 -19 -2 -12 -5z"/>
<path d="M3983 643 c9 -2 25 -2 35 0 9 3 1 5 -18 5 -19 0 -27 -2 -17 -5z"/>
<path d="M5773 643 c-18 -2 -33 -8 -33 -12 0 -4 16 -5 35 -3 19 2 35 8 35 13
0 5 -1 8 -2 7 -2 0 -18 -3 -35 -5z"/>
<path d="M2958 633 c7 -3 16 -2 19 1 4 3 -2 6 -13 5 -11 0 -14 -3 -6 -6z"/>
<path d="M4955 631 c6 -6 33 -13 60 -16 41 -3 43 -3 15 4 -19 4 -46 11 -60 15
-18 6 -22 5 -15 -3z"/>
<path d="M5272 633 c-8 -3 -53 -11 -100 -19 l-87 -13 79 5 c43 3 93 11 110 19
29 12 27 20 -2 8z"/>
<path d="M262 614 c-7 -8 -29 -14 -48 -14 -20 0 -70 -10 -112 -21 -106 -29
-105 -29 -101 -33 4 -4 253 43 283 53 15 6 16 9 5 18 -11 8 -17 7 -27 -3z"/>
<path d="M1880 619 c0 -6 -6 -9 -14 -6 -10 4 -12 0 -9 -14 7 -24 7 -24 27 6 9
14 12 25 6 25 -5 0 -10 -5 -10 -11z"/>
<path d="M2895 620 c-13 -5 -14 -9 -5 -9 8 0 24 4 35 9 13 5 14 9 5 9 -8 0
-24 -4 -35 -9z"/>
<path d="M5692 620 c-18 -4 -36 -11 -39 -14 -10 -10 61 5 72 15 5 5 7 9 5 8
-3 -1 -20 -5 -38 -9z"/>
<path d="M325 610 c-3 -6 1 -7 9 -4 18 7 21 14 7 14 -6 0 -13 -4 -16 -10z"/>
<path d="M1810 602 c14 -11 27 -16 29 -11 4 13 2 15 -29 24 l-25 8 25 -21z"/>
<path d="M2845 610 c-16 -7 -17 -9 -3 -9 9 -1 20 4 23 9 7 11 7 11 -20 0z"/>
<path d="M4595 610 c-4 -6 5 -10 19 -10 14 0 26 5 26 10 0 6 -9 10 -19 10 -11
0 -23 -4 -26 -10z"/>
<path d="M714 603 c7 -7 277 -6 284 2 3 3 -60 5 -141 4 -81 -1 -146 -4 -143
-6z"/>
<path d="M1902 585 c-13 -28 -6 -31 22 -10 10 7 15 18 11 24 -10 17 -21 13
-33 -14z"/>
<path d="M5372 590 c-14 -22 -17 -69 -3 -54 7 8 24 74 18 74 -1 0 -8 -9 -15
-20z"/>
<path d="M510 590 c-9 -6 -10 -10 -3 -10 6 0 15 5 18 10 8 12 4 12 -15 0z"/>
<path d="M565 590 c-7 -12 2 -12 30 0 19 8 19 9 -2 9 -12 1 -25 -3 -28 -9z"/>
<path d="M2780 589 c0 -5 5 -7 10 -4 6 3 10 8 10 11 0 2 -4 4 -10 4 -5 0 -10
-5 -10 -11z"/>
<path d="M3650 568 c0 -36 4 -35 14 5 4 16 2 27 -4 27 -5 0 -10 -14 -10 -32z"/>
<path d="M5608 593 c6 -2 18 -2 25 0 6 3 1 5 -13 5 -14 0 -19 -2 -12 -5z"/>
<path d="M438 583 c12 -2 30 -2 40 0 9 3 -1 5 -23 4 -22 0 -30 -2 -17 -4z"/>
<path d="M3260 580 c-12 -8 -9 -10 13 -10 15 0 27 5 27 10 0 13 -20 13 -40 0z"/>
<path d="M5275 574 c11 -8 28 -21 38 -29 20 -18 27 -19 27 -5 0 11 -59 50 -75
50 -5 -1 -1 -7 10 -16z"/>
<path d="M5492 562 c-39 -14 -70 -27 -67 -30 5 -5 155 47 155 54 0 6 -10 4
-88 -24z"/>
<path d="M285 570 c-16 -4 -23 -9 -15 -10 16 -3 20 -2 90 10 l45 8 -45 0 c-25
0 -58 -4 -75 -8z"/>
<path d="M1370 576 c0 -8 51 -13 56 -5 3 5 -9 9 -25 9 -17 0 -31 -2 -31 -4z"/>
<path d="M2660 570 c-11 -7 -5 -8 20 -4 43 8 51 14 19 14 -13 0 -31 -5 -39
-10z"/>
<path d="M3676 552 c-10 -19 -16 -36 -13 -38 7 -8 39 46 34 59 -2 7 -12 -3
-21 -21z"/>
<path d="M1446 561 c-4 -5 3 -7 14 -4 23 6 26 13 6 13 -8 0 -17 -4 -20 -9z"/>
<path d="M1500 559 c0 -5 9 -9 20 -9 11 0 20 2 20 4 0 2 -9 6 -20 9 -11 3 -20
1 -20 -4z"/>
<path d="M3603 545 c12 -13 24 -20 25 -14 5 13 -17 39 -33 39 -9 0 -6 -9 8
-25z"/>
<path d="M1850 550 c8 -5 24 -10 35 -10 17 0 17 2 5 10 -8 5 -24 10 -35 10
-17 0 -17 -2 -5 -10z"/>
<path d="M2540 550 l-35 -7 37 -2 c20 0 40 4 43 9 7 11 7 11 -45 0z"/>
<path d="M133 543 c9 -2 25 -2 35 0 9 3 1 5 -18 5 -19 0 -27 -2 -17 -5z"/>
<path d="M1605 539 c109 -26 137 -31 142 -26 7 8 -61 24 -127 30 -51 5 -52 5
-15 -4z"/>
<path d="M595 529 c-16 -6 -14 -8 13 -8 33 -1 41 4 20 12 -7 2 -22 1 -33 -4z"/>
<path d="M2445 530 c-25 -11 1 -11 35 0 20 6 21 8 5 8 -11 0 -29 -3 -40 -8z"/>
<path d="M2848 523 c12 -2 32 -2 45 0 12 2 2 4 -23 4 -25 0 -35 -2 -22 -4z"/>
<path d="M5260 526 c0 -2 9 -6 20 -9 11 -3 20 -1 20 4 0 5 -9 9 -20 9 -11 0
-20 -2 -20 -4z"/>
<path d="M2336 511 c-4 -5 3 -7 14 -4 23 6 26 13 6 13 -8 0 -17 -4 -20 -9z"/>
<path d="M1845 490 c50 -10 95 -19 100 -20 6 -1 17 -1 25 0 23 3 -151 39 -185
38 -16 0 11 -8 60 -18z"/>
<path d="M2223 503 c15 -2 37 -2 50 0 12 2 0 4 -28 4 -27 0 -38 -2 -22 -4z"/>
<path d="M3755 500 c-4 -6 5 -10 19 -10 14 0 26 5 26 10 0 6 -9 10 -19 10 -11
0 -23 -4 -26 -10z"/>
<path d="M3837 499 c7 -7 15 -10 18 -7 3 3 -2 9 -12 12 -14 6 -15 5 -6 -5z"/>
<path d="M350 487 c0 -8 11 -26 25 -41 25 -27 34 -66 15 -66 -5 0 -10 5 -10
11 0 6 -7 9 -14 6 -10 -4 -13 -1 -9 9 3 8 -1 14 -11 14 -9 0 -16 -8 -16 -19 0
-14 8 -21 28 -23 22 -2 28 -9 32 -37 4 -31 6 -33 19 -18 7 10 24 17 37 17 17
0 24 6 24 20 0 27 -25 25 -44 -2 -21 -30 -28 -19 -15 25 8 29 15 37 33 37 28
0 41 24 21 40 -10 8 -17 7 -29 -5 -9 -9 -16 -21 -16 -26 0 -25 -19 -5 -27 28
-9 37 -43 61 -43 30z"/>
<path d="M3585 490 c4 -6 11 -8 16 -5 14 9 11 15 -7 15 -8 0 -12 -5 -9 -10z"/>
<path d="M3920 490 c25 -8 97 -13 89 -6 -2 2 -29 6 -59 9 -36 4 -46 3 -30 -3z"/>
<path d="M4775 480 c-3 -11 -3 -29 0 -41 5 -16 10 -18 21 -8 8 6 14 17 13 23
0 7 -2 6 -6 -1 -10 -26 -24 -12 -18 17 7 34 0 41 -10 10z"/>
<path d="M2660 480 c-14 -3 -20 -9 -14 -12 11 -8 40 -5 49 4 11 10 -9 15 -35
8z"/>
<path d="M3493 483 c15 -2 37 -2 50 0 12 2 0 4 -28 4 -27 0 -38 -2 -22 -4z"/>
<path d="M5278 483 c7 -3 16 -2 19 1 4 3 -2 6 -13 5 -11 0 -14 -3 -6 -6z"/>
<path d="M112 473 c-35 -7 -15 -23 28 -23 41 0 61 14 34 24 -16 6 -24 6 -62
-1z"/>
<path d="M3358 470 c-15 -4 -30 -5 -34 -1 -4 3 -4 1 -1 -6 7 -10 44 -5 92 12
20 7 -31 3 -57 -5z"/>
<path d="M4033 473 c9 -2 23 -2 30 0 6 3 -1 5 -18 5 -16 0 -22 -2 -12 -5z"/>
<path d="M4720 461 c12 -23 30 -36 30 -22 0 10 -27 41 -36 41 -3 0 0 -9 6 -19z"/>
<path d="M5170 462 c-36 -9 -56 -18 -45 -20 11 -1 47 6 80 17 74 23 53 25 -35
3z"/>
<path d="M1170 455 c0 -8 2 -15 4 -15 2 0 6 7 10 15 3 8 1 15 -4 15 -6 0 -10
-7 -10 -15z"/>
<path d="M2000 461 c19 -12 140 -34 147 -27 3 2 -12 8 -33 11 -22 4 -52 11
-68 16 -16 5 -36 9 -45 9 -14 -1 -14 -2 -1 -9z"/>
<path d="M4170 454 c36 -7 79 -13 95 -12 17 0 -4 6 -45 14 -97 17 -134 16 -50
-2z"/>
<path d="M1600 450 c0 -5 14 -10 30 -10 17 0 30 5 30 10 0 6 -13 10 -30 10
-16 0 -30 -4 -30 -10z"/>
<path d="M3250 450 c-34 -7 -34 -7 -5 -8 17 0 39 3 50 8 24 10 4 10 -45 0z"/>
<path d="M5062 439 c-48 -10 -53 -21 -6 -13 21 3 41 8 43 10 9 9 -6 10 -37 3z"/>
<path d="M859 422 c-12 -11 -18 -21 -13 -24 5 -2 19 6 31 19 27 27 15 31 -18
5z"/>
<path d="M1457 426 c-4 -9 -3 -15 1 -13 4 1 8 -2 9 -8 0 -5 -3 -9 -9 -7 -5 1
-7 -2 -3 -8 3 -5 -3 -10 -14 -10 -12 0 -21 -4 -21 -9 0 -12 29 -4 53 14 20 14
20 46 1 52 -6 2 -14 -3 -17 -11z"/>
<path d="M3188 433 c7 -3 16 -2 19 1 4 3 -2 6 -13 5 -11 0 -14 -3 -6 -6z"/>
<path d="M4320 431 c0 -6 17 -11 39 -11 21 0 60 -2 87 -5 47 -4 47 -4 9 4 -84
18 -135 22 -135 12z"/>
<path d="M2180 420 c34 -11 60 -11 35 0 -11 5 -29 8 -40 8 -16 0 -15 -2 5 -8z"/>
<path d="M3138 423 c7 -3 16 -2 19 1 4 3 -2 6 -13 5 -11 0 -14 -3 -6 -6z"/>
<path d="M4955 420 c-19 -8 -19 -9 3 -9 12 -1 22 4 22 9 0 6 -1 10 -2 9 -2 0
-12 -4 -23 -9z"/>
<path d="M5982 410 c0 -14 2 -19 5 -12 2 6 2 18 0 25 -3 6 -5 1 -5 -13z"/>
<path d="M2248 408 c5 -5 16 -8 23 -6 8 3 3 7 -10 11 -17 4 -21 3 -13 -5z"/>
<path d="M3088 413 c7 -3 16 -2 19 1 4 3 -2 6 -13 5 -11 0 -14 -3 -6 -6z"/>
<path d="M4750 412 c0 -7 -15 -13 -32 -13 -32 -2 -33 -2 -4 -6 28 -5 56 11 43
24 -4 3 -7 1 -7 -5z"/>
<path d="M3048 403 c7 -3 16 -2 19 1 4 3 -2 6 -13 5 -11 0 -14 -3 -6 -6z"/>
<path d="M4564 399 c46 -6 73 -6 80 1 7 7 -16 10 -69 9 l-80 -2 69 -8z"/>
<path d="M4800 402 c0 -4 17 -6 38 -4 64 6 69 10 15 11 -29 0 -53 -3 -53 -7z"/>
<path d="M2310 390 c14 -4 34 -8 45 -8 16 0 15 2 -5 8 -14 4 -34 8 -45 8 -16
0 -15 -2 5 -8z"/>
<path d="M2386 379 c6 -11 151 -42 166 -36 7 3 2 6 -12 7 -14 1 -55 9 -92 19
-37 9 -65 14 -62 10z"/>
<path d="M2915 380 c-18 -8 -17 -9 8 -9 16 -1 26 3 22 9 -3 6 -7 10 -8 9 -1 0
-11 -4 -22 -9z"/>
<path d="M2968 383 c7 -3 16 -2 19 1 4 3 -2 6 -13 5 -11 0 -14 -3 -6 -6z"/>
<path d="M5746 379 c3 -10 -1 -19 -10 -22 -9 -4 -16 -12 -16 -20 0 -21 -47
-60 -61 -52 -7 5 -10 4 -6 -2 7 -11 -16 -37 -25 -28 -2 3 -5 -2 -5 -10 0 -8 2
-13 5 -11 10 10 103 -84 95 -97 -3 -5 -1 -7 4 -4 6 4 13 0 17 -8 3 -8 10 -15
16 -15 6 0 9 4 6 8 -3 5 6 15 19 22 18 10 22 17 14 26 -7 8 -6 14 2 20 8 5 10
3 5 -7 -4 -8 1 -4 11 7 10 12 28 27 41 33 30 16 28 37 -5 58 -16 9 -35 26 -43
36 -38 48 -70 81 -64 66z m30 -64 c10 -22 31 -44 53 -55 32 -16 34 -19 16 -26
-31 -11 -75 -56 -75 -76 0 -28 -15 -21 -32 15 -10 21 -31 41 -54 52 l-38 18
38 19 c22 11 43 33 53 53 9 19 18 35 19 35 2 0 11 -16 20 -35z"/>
<path d="M13 353 c9 -2 23 -2 30 0 6 3 -1 5 -18 5 -17 0 -22 -2 -12 -5z"/>
<path d="M305 350 c-9 -15 4 -30 26 -30 11 0 19 -7 20 -17 0 -11 2 -13 6 -5 6
14 -22 62 -37 62 -5 0 -12 -4 -15 -10z"/>
<path d="M828 353 c7 -3 16 -2 19 1 4 3 -2 6 -13 5 -11 0 -14 -3 -6 -6z"/>
<path d="M1330 345 c-25 -7 -71 -16 -102 -20 -32 -4 -58 -12 -58 -17 0 -6 10
-8 23 -4 12 3 59 13 105 22 45 9 82 21 82 25 0 5 -1 8 -2 8 -2 -1 -23 -7 -48
-14z"/>
<path d="M2367 353 c-12 -11 -8 -23 8 -23 8 0 15 7 15 15 0 16 -12 20 -23 8z"/>
<path d="M72 346 c10 -12 167 -45 173 -37 2 4 -30 13 -72 20 -42 7 -83 15 -92
19 -9 3 -13 2 -9 -2z"/>
<path d="M750 333 c-30 -8 -68 -19 -85 -23 -27 -7 -28 -8 -5 -9 14 0 43 6 65
14 22 8 48 15 57 15 9 0 20 5 23 10 3 6 5 10 3 9 -2 0 -28 -7 -58 -16z"/>
<path d="M2010 330 c-8 -5 -10 -10 -5 -11 53 -6 65 -5 65 8 0 15 -38 17 -60 3z"/>
<path d="M2594 333 c7 -8 9 -8 81 -17 32 -4 43 -3 30 2 -26 12 -120 24 -111
15z"/>
<path d="M2295 319 c-4 -6 -3 -14 3 -18 5 -3 12 -15 15 -26 4 -15 5 -14 6 8 0
15 1 30 2 34 1 13 -19 15 -26 2z"/>
<path d="M2350 301 c0 -11 -4 -23 -10 -26 -5 -3 -9 -16 -9 -28 1 -18 2 -19 6
-4 3 10 17 23 31 28 25 10 26 12 10 23 -10 7 -15 16 -11 19 3 4 1 7 -5 7 -7 0
-12 -9 -12 -19z"/>
<path d="M2730 308 c0 -4 14 -8 30 -8 17 0 30 2 30 4 0 2 -13 6 -30 8 -16 3
-30 1 -30 -4z"/>
<path d="M268 303 c7 -3 16 -2 19 1 4 3 -2 6 -13 5 -11 0 -14 -3 -6 -6z"/>
<path d="M607 303 c-4 -3 -28 -12 -54 -19 -27 -7 -39 -13 -28 -13 31 -1 110
25 98 32 -6 4 -13 4 -16 0z"/>
<path d="M2250 261 c17 -27 38 -52 48 -55 16 -6 16 -5 0 7 -10 8 -15 17 -12
20 10 9 -36 77 -52 77 -10 0 -5 -14 16 -49z"/>
<path d="M2810 299 c0 -4 21 -10 46 -14 25 -3 54 -8 65 -10 10 -2 19 -1 19 4
0 4 -29 11 -65 17 -36 5 -65 7 -65 3z"/>
<path d="M375 290 c3 -5 8 -10 11 -10 2 0 4 5 4 10 0 6 -5 10 -11 10 -5 0 -7
-4 -4 -10z"/>
<path d="M1114 286 c-18 -8 -35 -19 -39 -25 -5 -9 66 21 84 36 10 8 -17 1 -45
-11z"/>
<path d="M5982 280 c0 -14 2 -19 5 -12 2 6 2 18 0 25 -3 6 -5 1 -5 -13z"/>
<path d="M433 283 c9 -2 23 -2 30 0 6 3 -1 5 -18 5 -16 0 -22 -2 -12 -5z"/>
<path d="M1385 280 c-3 -5 3 -10 15 -10 12 0 18 5 15 10 -3 6 -10 10 -15 10
-5 0 -12 -4 -15 -10z"/>
<path d="M2975 269 c17 -5 40 -7 53 -4 12 3 22 2 22 -2 0 -10 57 -9 67 0 3 4
-2 7 -13 8 -10 0 -50 2 -89 4 -55 3 -64 2 -40 -6z"/>
<path d="M2620 250 c0 -5 9 -10 20 -10 11 0 20 5 20 10 0 6 -9 10 -20 10 -11
0 -20 -4 -20 -10z"/>
<path d="M3168 253 c7 -3 16 -2 19 1 4 3 -2 6 -13 5 -11 0 -14 -3 -6 -6z"/>
<path d="M3230 249 c64 -16 80 -18 80 -10 0 5 -17 11 -37 15 -55 9 -84 5 -43
-5z"/>
<path d="M1710 240 c0 -5 18 -10 41 -10 24 0 38 4 34 10 -3 6 -22 10 -41 10
-19 0 -34 -4 -34 -10z"/>
<path d="M2360 230 c-27 -27 -26 -44 0 -30 11 6 17 16 14 22 -4 6 -3 8 3 5 6
-4 16 0 23 8 20 24 -16 19 -40 -5z"/>
<path d="M3330 237 c3 -3 31 -8 62 -11 31 -3 65 -9 75 -13 14 -5 15 -3 6 7 -6
7 -42 15 -80 17 -37 3 -66 3 -63 0z"/>
<path d="M5963 200 c0 -25 2 -35 4 -22 2 12 2 32 0 45 -2 12 -4 2 -4 -23z"/>
<path d="M2190 222 c0 -10 82 -53 89 -46 3 2 -4 13 -15 23 -21 20 -74 37 -74
23z"/>
<path d="M1068 213 c7 -3 16 -2 19 1 4 3 -2 6 -13 5 -11 0 -14 -3 -6 -6z"/>
<path d="M1123 203 c9 -2 23 -2 30 0 6 3 -1 5 -18 5 -16 0 -22 -2 -12 -5z"/>
<path d="M2910 201 c0 -12 64 -23 94 -15 46 11 28 24 -34 24 -33 0 -60 -4 -60
-9z"/>
<path d="M3551 206 c2 -2 27 -7 54 -10 28 -4 58 -9 68 -12 9 -3 17 -1 17 4 0
5 -21 12 -46 16 -53 7 -99 8 -93 2z"/>
<path d="M1178 193 c7 -3 16 -2 19 1 4 3 -2 6 -13 5 -11 0 -14 -3 -6 -6z"/>
<path d="M2380 190 c-10 -6 -12 -12 -4 -20 12 -12 74 6 74 21 0 12 -51 11 -70
-1z"/>
<path d="M1300 180 c45 -9 157 -13 149 -6 -2 2 -47 6 -99 9 -65 3 -81 2 -50
-3z"/>
<path d="M3745 174 c28 -8 68 -19 90 -25 22 -6 57 -18 78 -25 20 -8 45 -14 55
-13 25 1 -49 27 -158 54 -101 26 -148 32 -65 9z"/>
<path d="M1461 165 c7 -7 740 -7 747 0 3 3 -165 5 -373 5 -208 0 -376 -2 -374
-5z"/>
<path d="M3679 139 c-10 -6 -4 -9 19 -9 17 0 32 2 32 4 0 9 -39 13 -51 5z"/>
<path d="M2405 130 c54 -11 227 -20 195 -11 -14 4 -72 10 -130 13 -64 4 -89 3
-65 -2z"/>
<path d="M2715 121 c-27 -4 82 -6 242 -6 161 0 293 3 293 8 0 8 -462 7 -535
-2z"/>
<path d="M3268 123 c7 -3 16 -2 19 1 4 3 -2 6 -13 5 -11 0 -14 -3 -6 -6z"/>
<path d="M3348 113 c12 -2 30 -2 40 0 9 3 -1 5 -23 4 -22 0 -30 -2 -17 -4z"/>
<path d="M3485 95 c39 -7 81 -13 95 -13 14 0 -4 6 -40 13 -36 8 -78 14 -95 13
-16 0 2 -6 40 -13z"/>
<path d="M3995 102 c6 -5 24 -12 40 -16 34 -7 15 7 -25 19 -16 5 -22 4 -15 -3z"/>
<path d="M5962 90 c0 -14 2 -19 5 -12 2 6 2 18 0 25 -3 6 -5 1 -5 -13z"/>
<path d="M3618 73 c7 -3 16 -2 19 1 4 3 -2 6 -13 5 -11 0 -14 -3 -6 -6z"/>
<path d="M3730 45 c99 -29 90 -27 90 -16 0 5 -12 11 -27 14 -16 3 -39 8 -53
11 -77 18 -83 13 -10 -9z"/>
<path d="M5982 40 c0 -19 2 -27 5 -17 2 9 2 25 0 35 -3 9 -5 1 -5 -18z"/>
<path d="M3837 20 c13 -12 65 -22 59 -12 -3 6 -19 12 -36 14 -17 3 -27 1 -23
-2z"/>
</g>
</svg>
